<svg xmlns="http://www.w3.org/2000/svg" xmlns:xlink="http://www.w3.org/1999/xlink" width="1029.814" height="207.437" viewBox="0 0 1029.814 207.437">
  <defs>
    <clipPath id="clip-path">
      <path id="Trazado_9727" data-name="Trazado 9727" d="M570.441,8097.065s-94.944-2.431-104.228,3.209-65.173,84-64.045,85.254,19.511,48.363,19.511,48.363a56.569,56.569,0,0,1,93.559-34.053l67.28-5.886Z" fill="none"/>
    </clipPath>
  </defs>
  <g id="Grupo_11889" data-name="Grupo 11889" transform="translate(-202.859 -8096.12)">
    <circle id="Elipse_148" data-name="Elipse 148" cx="23.493" cy="23.493" r="23.493" transform="translate(703.169 8131.587)" fill="#349d3f"/>
    <circle id="Elipse_149" data-name="Elipse 149" cx="23.493" cy="23.493" r="23.493" transform="translate(703.169 8191.302)" fill="#e27023"/>
    <circle id="Elipse_150" data-name="Elipse 150" cx="23.493" cy="23.493" r="23.493" transform="translate(703.169 8248.356)" fill="#5e2a80"/>
    <circle id="Elipse_151" data-name="Elipse 151" cx="23.493" cy="23.493" r="23.493" transform="translate(636.799 8131.587)" fill="#ff2600"/>
    <circle id="Elipse_152" data-name="Elipse 152" cx="23.493" cy="23.493" r="23.493" transform="translate(636.799 8191.302)" fill="#ffe600"/>
    <circle id="Elipse_153" data-name="Elipse 153" cx="23.493" cy="23.493" r="23.493" transform="translate(636.799 8248.356)" fill="#00afcf"/>
    <g id="Grupo_10232" data-name="Grupo 10232">
      <g id="Grupo_10142" data-name="Grupo 10142">
        <g id="Grupo_10134" data-name="Grupo 10134">
          <path id="Trazado_9477" data-name="Trazado 9477" d="M773.818,8163.8h30.343l-21.456-21.456A30.249,30.249,0,0,0,773.818,8163.8Z" fill="#97c7e5"/>
        </g>
        <g id="Grupo_10135" data-name="Grupo 10135">
          <path id="Trazado_9478" data-name="Trazado 9478" d="M804.161,8163.8v-30.343a30.249,30.249,0,0,0-21.456,8.887Z" fill="#704ec2"/>
        </g>
        <g id="Grupo_10136" data-name="Grupo 10136">
          <path id="Trazado_9479" data-name="Trazado 9479" d="M804.161,8194.142a30.247,30.247,0,0,0,21.456-8.887L804.161,8163.8Z" fill="#f4d3ef"/>
        </g>
        <g id="Grupo_10137" data-name="Grupo 10137">
          <path id="Trazado_9480" data-name="Trazado 9480" d="M834.5,8163.8H804.161l21.456,21.456A30.248,30.248,0,0,0,834.5,8163.8Z" fill="#65c3e0"/>
        </g>
        <g id="Grupo_10138" data-name="Grupo 10138">
          <path id="Trazado_9481" data-name="Trazado 9481" d="M804.161,8163.8H834.5a30.249,30.249,0,0,0-8.887-21.456Z" fill="#4c79ce"/>
        </g>
        <g id="Grupo_10139" data-name="Grupo 10139">
          <path id="Trazado_9482" data-name="Trazado 9482" d="M804.161,8133.456V8163.8l21.456-21.456A30.249,30.249,0,0,0,804.161,8133.456Z" fill="#cb7fd7"/>
        </g>
        <g id="Grupo_10140" data-name="Grupo 10140">
          <path id="Trazado_9483" data-name="Trazado 9483" d="M804.161,8163.8l-21.456,21.456a30.247,30.247,0,0,0,21.456,8.887Z" fill="#32d1b3"/>
        </g>
        <g id="Grupo_10141" data-name="Grupo 10141">
          <path id="Trazado_9484" data-name="Trazado 9484" d="M773.818,8163.8a30.247,30.247,0,0,0,8.887,21.456l21.456-21.456Z" fill="#9e65c7"/>
        </g>
      </g>
      <g id="Grupo_10151" data-name="Grupo 10151">
        <g id="Grupo_10143" data-name="Grupo 10143">
          <path id="Trazado_9485" data-name="Trazado 9485" d="M853.451,8163.8h30.344l-21.456-21.456A30.25,30.25,0,0,0,853.451,8163.8Z" fill="#dcef7e"/>
        </g>
        <g id="Grupo_10144" data-name="Grupo 10144">
          <path id="Trazado_9486" data-name="Trazado 9486" d="M883.795,8163.8v-30.343a30.249,30.249,0,0,0-21.456,8.887Z" fill="#ff6819"/>
        </g>
        <g id="Grupo_10145" data-name="Grupo 10145">
          <path id="Trazado_9487" data-name="Trazado 9487" d="M883.795,8194.142a30.247,30.247,0,0,0,21.456-8.887L883.795,8163.8Z" fill="#a64f08"/>
        </g>
        <g id="Grupo_10146" data-name="Grupo 10146">
          <path id="Trazado_9488" data-name="Trazado 9488" d="M914.138,8163.8H883.795l21.456,21.456A30.247,30.247,0,0,0,914.138,8163.8Z" fill="#ffe365"/>
        </g>
        <g id="Grupo_10147" data-name="Grupo 10147">
          <path id="Trazado_9489" data-name="Trazado 9489" d="M883.795,8163.8h30.343a30.249,30.249,0,0,0-8.887-21.456Z" fill="#ff2600"/>
        </g>
        <g id="Grupo_10148" data-name="Grupo 10148">
          <path id="Trazado_9490" data-name="Trazado 9490" d="M883.795,8133.456V8163.8l21.456-21.456A30.249,30.249,0,0,0,883.795,8133.456Z" fill="#ffe532"/>
        </g>
        <g id="Grupo_10149" data-name="Grupo 10149">
          <path id="Trazado_9491" data-name="Trazado 9491" d="M883.795,8163.8l-21.456,21.456a30.247,30.247,0,0,0,21.456,8.887Z" fill="#dfef19"/>
        </g>
        <g id="Grupo_10150" data-name="Grupo 10150">
          <path id="Trazado_9492" data-name="Trazado 9492" d="M853.451,8163.8a30.248,30.248,0,0,0,8.888,21.456l21.456-21.456Z" fill="#ffb34c"/>
        </g>
      </g>
      <g id="Grupo_10160" data-name="Grupo 10160">
        <g id="Grupo_10152" data-name="Grupo 10152">
          <path id="Trazado_9493" data-name="Trazado 9493" d="M933.085,8163.8h30.343l-21.456-21.456A30.249,30.249,0,0,0,933.085,8163.8Z" fill="#fff132"/>
        </g>
        <g id="Grupo_10153" data-name="Grupo 10153">
          <path id="Trazado_9494" data-name="Trazado 9494" d="M963.428,8163.8v-30.343a30.251,30.251,0,0,0-21.456,8.887Z" fill="#ff4e19"/>
        </g>
        <g id="Grupo_10154" data-name="Grupo 10154">
          <path id="Trazado_9495" data-name="Trazado 9495" d="M963.428,8194.142a30.247,30.247,0,0,0,21.456-8.887L963.428,8163.8Z" fill="#3bbe00"/>
        </g>
        <g id="Grupo_10155" data-name="Grupo 10155">
          <path id="Trazado_9496" data-name="Trazado 9496" d="M993.772,8163.8H963.428l21.456,21.456A30.248,30.248,0,0,0,993.772,8163.8Z" fill="#5f38bb"/>
        </g>
        <g id="Grupo_10156" data-name="Grupo 10156">
          <path id="Trazado_9497" data-name="Trazado 9497" d="M963.428,8163.8h30.344a30.25,30.25,0,0,0-8.888-21.456Z" fill="#00afcf"/>
        </g>
        <g id="Grupo_10157" data-name="Grupo 10157">
          <path id="Trazado_9498" data-name="Trazado 9498" d="M963.428,8133.456V8163.8l21.456-21.456A30.249,30.249,0,0,0,963.428,8133.456Z" fill="#a92bbc"/>
        </g>
        <g id="Grupo_10158" data-name="Grupo 10158">
          <path id="Trazado_9499" data-name="Trazado 9499" d="M963.428,8163.8l-21.455,21.456a30.245,30.245,0,0,0,21.455,8.887Z" fill="#dced00"/>
        </g>
        <g id="Grupo_10159" data-name="Grupo 10159">
          <path id="Trazado_9500" data-name="Trazado 9500" d="M933.085,8163.8a30.244,30.244,0,0,0,8.888,21.456l21.455-21.456Z" fill="#ffb200"/>
        </g>
      </g>
      <g id="Grupo_10169" data-name="Grupo 10169">
        <g id="Grupo_10161" data-name="Grupo 10161">
          <path id="Trazado_9501" data-name="Trazado 9501" d="M1171.986,8163.8h30.343l-21.456-21.456A30.249,30.249,0,0,0,1171.986,8163.8Z" fill="#c799ff"/>
        </g>
        <g id="Grupo_10162" data-name="Grupo 10162">
          <path id="Trazado_9502" data-name="Trazado 9502" d="M1202.329,8163.8v-30.343a30.249,30.249,0,0,0-21.456,8.887Z" fill="#aba196"/>
        </g>
        <g id="Grupo_10163" data-name="Grupo 10163">
          <path id="Trazado_9503" data-name="Trazado 9503" d="M1202.329,8194.142a30.248,30.248,0,0,0,21.456-8.887l-21.456-21.456Z" fill="#9be37b"/>
        </g>
        <g id="Grupo_10164" data-name="Grupo 10164">
          <path id="Trazado_9504" data-name="Trazado 9504" d="M1232.673,8163.8h-30.344l21.456,21.456A30.248,30.248,0,0,0,1232.673,8163.8Z" fill="#ff9"/>
        </g>
        <g id="Grupo_10165" data-name="Grupo 10165">
          <path id="Trazado_9505" data-name="Trazado 9505" d="M1202.329,8163.8h30.344a30.25,30.25,0,0,0-8.888-21.456Z" fill="#ff87bf"/>
        </g>
        <g id="Grupo_10166" data-name="Grupo 10166">
          <path id="Trazado_9506" data-name="Trazado 9506" d="M1202.329,8133.456V8163.8l21.456-21.456A30.25,30.25,0,0,0,1202.329,8133.456Z" fill="#88bde3"/>
        </g>
        <g id="Grupo_10167" data-name="Grupo 10167">
          <path id="Trazado_9507" data-name="Trazado 9507" d="M1202.329,8163.8l-21.456,21.456a30.247,30.247,0,0,0,21.456,8.887Z" fill="#cceaff"/>
        </g>
        <g id="Grupo_10168" data-name="Grupo 10168">
          <path id="Trazado_9508" data-name="Trazado 9508" d="M1171.986,8163.8a30.247,30.247,0,0,0,8.887,21.456l21.456-21.456Z" fill="#ffbc66"/>
        </g>
      </g>
      <g id="Grupo_10178" data-name="Grupo 10178">
        <g id="Grupo_10170" data-name="Grupo 10170">
          <path id="Trazado_9509" data-name="Trazado 9509" d="M1092.352,8163.8H1122.7l-21.456-21.456A30.25,30.25,0,0,0,1092.352,8163.8Z" fill="#ff2600"/>
        </g>
        <g id="Grupo_10171" data-name="Grupo 10171">
          <path id="Trazado_9510" data-name="Trazado 9510" d="M1122.7,8163.8v-30.343a30.249,30.249,0,0,0-21.456,8.887Z" fill="#7524af"/>
        </g>
        <g id="Grupo_10172" data-name="Grupo 10172">
          <path id="Trazado_9511" data-name="Trazado 9511" d="M1122.7,8194.142a30.249,30.249,0,0,0,21.456-8.887L1122.7,8163.8Z" fill="#badf00"/>
        </g>
        <g id="Grupo_10173" data-name="Grupo 10173">
          <path id="Trazado_9512" data-name="Trazado 9512" d="M1153.039,8163.8H1122.7l21.456,21.456A30.247,30.247,0,0,0,1153.039,8163.8Z" fill="#3bbe00"/>
        </g>
        <g id="Grupo_10174" data-name="Grupo 10174">
          <path id="Trazado_9513" data-name="Trazado 9513" d="M1122.7,8163.8h30.343a30.249,30.249,0,0,0-8.887-21.456Z" fill="#ff7900"/>
        </g>
        <g id="Grupo_10175" data-name="Grupo 10175">
          <path id="Trazado_9514" data-name="Trazado 9514" d="M1122.7,8133.456V8163.8l21.456-21.456A30.251,30.251,0,0,0,1122.7,8133.456Z" fill="#00afcf"/>
        </g>
        <g id="Grupo_10176" data-name="Grupo 10176">
          <path id="Trazado_9515" data-name="Trazado 9515" d="M1122.7,8163.8l-21.456,21.456a30.247,30.247,0,0,0,21.456,8.887Z" fill="#009bcc"/>
        </g>
        <g id="Grupo_10177" data-name="Grupo 10177">
          <path id="Trazado_9516" data-name="Trazado 9516" d="M1092.352,8163.8a30.248,30.248,0,0,0,8.888,21.456L1122.7,8163.8Z" fill="#c82db3"/>
        </g>
      </g>
      <g id="Grupo_10187" data-name="Grupo 10187">
        <g id="Grupo_10179" data-name="Grupo 10179">
          <path id="Trazado_9517" data-name="Trazado 9517" d="M1012.719,8163.8h30.343l-21.456-21.456A30.249,30.249,0,0,0,1012.719,8163.8Z" fill="#660064"/>
        </g>
        <g id="Grupo_10180" data-name="Grupo 10180">
          <path id="Trazado_9518" data-name="Trazado 9518" d="M1043.062,8163.8v-30.343a30.249,30.249,0,0,0-21.456,8.887Z" fill="#003b66"/>
        </g>
        <g id="Grupo_10181" data-name="Grupo 10181">
          <path id="Trazado_9519" data-name="Trazado 9519" d="M1043.062,8194.142a30.247,30.247,0,0,0,21.456-8.887l-21.456-21.456Z" fill="#00663b"/>
        </g>
        <g id="Grupo_10182" data-name="Grupo 10182">
          <path id="Trazado_9520" data-name="Trazado 9520" d="M1073.405,8163.8h-30.343l21.456,21.456A30.247,30.247,0,0,0,1073.405,8163.8Z" fill="#999600"/>
        </g>
        <g id="Grupo_10183" data-name="Grupo 10183">
          <path id="Trazado_9521" data-name="Trazado 9521" d="M1043.062,8163.8h30.343a30.249,30.249,0,0,0-8.887-21.456Z" fill="#660030"/>
        </g>
        <g id="Grupo_10184" data-name="Grupo 10184">
          <path id="Trazado_9522" data-name="Trazado 9522" d="M1043.062,8133.456V8163.8l21.456-21.456A30.249,30.249,0,0,0,1043.062,8133.456Z" fill="#663900"/>
        </g>
        <g id="Grupo_10185" data-name="Grupo 10185">
          <path id="Trazado_9523" data-name="Trazado 9523" d="M1043.062,8163.8l-21.456,21.456a30.247,30.247,0,0,0,21.456,8.887Z" fill="#660f00"/>
        </g>
        <g id="Grupo_10186" data-name="Grupo 10186">
          <path id="Trazado_9524" data-name="Trazado 9524" d="M1012.719,8163.8a30.247,30.247,0,0,0,8.887,21.456l21.456-21.456Z" fill="#060"/>
        </g>
      </g>
      <g id="Grupo_10192" data-name="Grupo 10192" opacity="0.7">
        <g id="Grupo_10188" data-name="Grupo 10188">
          <path id="Trazado_9525" data-name="Trazado 9525" d="M797.376,8203.061a1.538,1.538,0,0,0-1.234-.608,1.513,1.513,0,0,0-.6.117,1.425,1.425,0,0,0-.785.8,1.566,1.566,0,0,0-.114.6,1.593,1.593,0,0,0,.114.609,1.451,1.451,0,0,0,.789.807,1.451,1.451,0,0,0,.587.119,1.671,1.671,0,0,0,1.241-.588v1.7l-.147.051a4.2,4.2,0,0,1-.617.173,2.955,2.955,0,0,1-.565.056,2.9,2.9,0,0,1-2.022-.826,3.032,3.032,0,0,1-.642-.933,2.979,2.979,0,0,1,0-2.348,2.928,2.928,0,0,1,2.675-1.737,3.017,3.017,0,0,1,.65.07,3.911,3.911,0,0,1,.672.217Z" fill="#9c9fa2"/>
        </g>
        <g id="Grupo_10189" data-name="Grupo 10189">
          <path id="Trazado_9526" data-name="Trazado 9526" d="M798.117,8203.979a2.848,2.848,0,0,1,1.824-2.7,3.508,3.508,0,0,1,2.47,0,2.9,2.9,0,0,1,.972.62,2.824,2.824,0,0,1,.635.929,3.009,3.009,0,0,1,0,2.3,2.83,2.83,0,0,1-.635.928,2.887,2.887,0,0,1-.972.62,3.508,3.508,0,0,1-2.47,0,2.858,2.858,0,0,1-1.824-2.7Zm1.5,0a1.464,1.464,0,0,0,.126.609,1.521,1.521,0,0,0,.832.8,1.625,1.625,0,0,0,1.2,0,1.564,1.564,0,0,0,.5-.319,1.515,1.515,0,0,0,.341-.484,1.545,1.545,0,0,0,0-1.218,1.508,1.508,0,0,0-.341-.485,1.544,1.544,0,0,0-.5-.318,1.625,1.625,0,0,0-1.2,0,1.513,1.513,0,0,0-.832.8A1.456,1.456,0,0,0,799.621,8203.979Z" fill="#9c9fa2"/>
        </g>
        <g id="Grupo_10190" data-name="Grupo 10190">
          <path id="Trazado_9527" data-name="Trazado 9527" d="M804.906,8203.979a2.851,2.851,0,0,1,1.825-2.7,3.5,3.5,0,0,1,2.469,0,2.906,2.906,0,0,1,.973.62,2.84,2.84,0,0,1,.635.929,3.021,3.021,0,0,1,0,2.3,2.846,2.846,0,0,1-.635.928,2.891,2.891,0,0,1-.973.62,3.5,3.5,0,0,1-2.469,0,2.837,2.837,0,0,1-1.6-1.548A2.892,2.892,0,0,1,804.906,8203.979Zm1.505,0a1.479,1.479,0,0,0,.125.609,1.519,1.519,0,0,0,.833.8,1.625,1.625,0,0,0,1.2,0,1.574,1.574,0,0,0,.5-.319,1.515,1.515,0,0,0,.341-.484,1.545,1.545,0,0,0,0-1.218,1.508,1.508,0,0,0-.341-.485,1.554,1.554,0,0,0-.5-.318,1.625,1.625,0,0,0-1.2,0,1.51,1.51,0,0,0-.5.318,1.529,1.529,0,0,0-.337.485A1.471,1.471,0,0,0,806.411,8203.979Z" fill="#9c9fa2"/>
        </g>
        <g id="Grupo_10191" data-name="Grupo 10191">
          <path id="Trazado_9528" data-name="Trazado 9528" d="M813.384,8201.211v4.316h1.725v1.219h-3.164v-5.535Z" fill="#9c9fa2"/>
        </g>
      </g>
      <g id="Grupo_10197" data-name="Grupo 10197" opacity="0.7">
        <g id="Grupo_10193" data-name="Grupo 10193">
          <path id="Trazado_9529" data-name="Trazado 9529" d="M872.4,8201.211l.955,3.575,1.174-3.575h1.145l1.174,3.575.954-3.575h1.505l-1.651,5.535H876.19l-1.087-3.208-1.086,3.208h-1.468l-1.651-5.535Z" fill="#9c9fa2"/>
        </g>
        <g id="Grupo_10194" data-name="Grupo 10194">
          <path id="Trazado_9530" data-name="Trazado 9530" d="M882.987,8205.784h-2.055l-.331.962h-1.534l2.107-5.535h1.571l2.106,5.535h-1.534Zm-.382-1.094-.646-1.843-.646,1.843Z" fill="#9c9fa2"/>
        </g>
        <g id="Grupo_10195" data-name="Grupo 10195">
          <path id="Trazado_9531" data-name="Trazado 9531" d="M890.085,8206.746h-1.791l-1.373-2.129v2.129h-1.439v-5.535h2.239a2.212,2.212,0,0,1,.808.136,1.576,1.576,0,0,1,.568.37,1.545,1.545,0,0,1,.338.544,1.889,1.889,0,0,1,.114.661,1.627,1.627,0,0,1-.3,1.024,1.535,1.535,0,0,1-.9.531Zm-3.164-3.062h.272a1.052,1.052,0,0,0,.653-.176.676.676,0,0,0,0-1.013,1.052,1.052,0,0,0-.653-.177h-.272Z" fill="#9c9fa2"/>
        </g>
        <g id="Grupo_10196" data-name="Grupo 10196">
          <path id="Trazado_9532" data-name="Trazado 9532" d="M890.437,8206.746l.939-5.535H892.8l1.108,2.951,1.1-2.951h1.424l.939,5.535h-1.431l-.477-3.186-1.307,3.186h-.572l-1.241-3.186-.477,3.186Z" fill="#9c9fa2"/>
        </g>
      </g>
      <g id="Grupo_10204" data-name="Grupo 10204" opacity="0.7">
        <g id="Grupo_10198" data-name="Grupo 10198">
          <path id="Trazado_9533" data-name="Trazado 9533" d="M948.949,8201.211h2.143a1.652,1.652,0,0,1,1.16.367,1.37,1.37,0,0,1,.4,1.057,1.437,1.437,0,0,1-.151.694,1.264,1.264,0,0,1-.459.466,1.748,1.748,0,0,1,.525.18,1.15,1.15,0,0,1,.353.3,1.109,1.109,0,0,1,.194.4,1.821,1.821,0,0,1,.059.469,1.669,1.669,0,0,1-.136.69,1.4,1.4,0,0,1-.382.506,1.6,1.6,0,0,1-.6.309,2.8,2.8,0,0,1-.793.1h-2.312Zm1.439,2.173h.264c.45,0,.675-.178.675-.536s-.225-.536-.675-.536h-.264Zm0,2.246h.315a1.6,1.6,0,0,0,.779-.14.545.545,0,0,0,0-.9,1.614,1.614,0,0,0-.779-.139h-.315Z" fill="#9c9fa2"/>
        </g>
        <g id="Grupo_10199" data-name="Grupo 10199">
          <path id="Trazado_9534" data-name="Trazado 9534" d="M958.631,8206.746H956.84l-1.373-2.129v2.129h-1.438v-5.535h2.238a2.213,2.213,0,0,1,.808.136,1.576,1.576,0,0,1,.568.37,1.545,1.545,0,0,1,.338.544,1.889,1.889,0,0,1,.114.661,1.627,1.627,0,0,1-.3,1.024,1.535,1.535,0,0,1-.9.531Zm-3.164-3.062h.272a1.05,1.05,0,0,0,.653-.176.676.676,0,0,0,0-1.013,1.05,1.05,0,0,0-.653-.177h-.272Z" fill="#9c9fa2"/>
        </g>
        <g id="Grupo_10200" data-name="Grupo 10200">
          <path id="Trazado_9535" data-name="Trazado 9535" d="M960.672,8201.211v5.535h-1.439v-5.535Z" fill="#9c9fa2"/>
        </g>
        <g id="Grupo_10201" data-name="Grupo 10201">
          <path id="Trazado_9536" data-name="Trazado 9536" d="M964.525,8203.648h2.855c0,.294-.012.56-.036.8a2.863,2.863,0,0,1-.147.668,2.658,2.658,0,0,1-.419.767,2.437,2.437,0,0,1-.62.559,2.909,2.909,0,0,1-.781.342,3.371,3.371,0,0,1-.9.117,3.128,3.128,0,0,1-1.178-.214,2.648,2.648,0,0,1-.914-.6,2.7,2.7,0,0,1-.595-.925,3.45,3.45,0,0,1,0-2.379,2.6,2.6,0,0,1,.594-.921,2.715,2.715,0,0,1,.929-.595,3.3,3.3,0,0,1,1.211-.213,3,3,0,0,1,1.52.375,2.6,2.6,0,0,1,1.034,1.159l-1.365.565a1.389,1.389,0,0,0-.495-.653,1.25,1.25,0,0,0-.694-.2,1.385,1.385,0,0,0-.587.121,1.273,1.273,0,0,0-.452.346,1.646,1.646,0,0,0-.293.539,2.2,2.2,0,0,0-.107.705,2.242,2.242,0,0,0,.092.653,1.485,1.485,0,0,0,.275.521,1.246,1.246,0,0,0,.455.342,1.551,1.551,0,0,0,.632.121,1.727,1.727,0,0,0,.411-.049,1.053,1.053,0,0,0,.356-.153.868.868,0,0,0,.26-.275,1.109,1.109,0,0,0,.14-.411h-1.182Z" fill="#9c9fa2"/>
        </g>
        <g id="Grupo_10202" data-name="Grupo 10202">
          <path id="Trazado_9537" data-name="Trazado 9537" d="M969.729,8203.347h2.077v-2.136h1.439v5.535h-1.439v-2.283h-2.077v2.283H968.29v-5.535h1.439Z" fill="#9c9fa2"/>
        </g>
        <g id="Grupo_10203" data-name="Grupo 10203">
          <path id="Trazado_9538" data-name="Trazado 9538" d="M976.5,8202.43v4.316h-1.438v-4.316h-1.182v-1.219h3.8v1.219Z" fill="#9c9fa2"/>
        </g>
      </g>
      <g id="Grupo_10209" data-name="Grupo 10209" opacity="0.7">
        <g id="Grupo_10205" data-name="Grupo 10205">
          <path id="Trazado_9539" data-name="Trazado 9539" d="M1032.047,8201.211h2.129a2.5,2.5,0,0,1,1.06.229,2.9,2.9,0,0,1,.866.6,2.819,2.819,0,0,1,.584.881,2.713,2.713,0,0,1,0,2.1,2.814,2.814,0,0,1-.579.884,2.856,2.856,0,0,1-.866.608,2.524,2.524,0,0,1-1.068.229h-2.129Zm1.439,4.316h.33a1.794,1.794,0,0,0,.668-.117,1.428,1.428,0,0,0,.495-.323,1.391,1.391,0,0,0,.309-.488,1.76,1.76,0,0,0,.106-.62,1.706,1.706,0,0,0-.11-.616,1.413,1.413,0,0,0-.312-.491,1.435,1.435,0,0,0-.5-.324,1.768,1.768,0,0,0-.66-.117h-.33Z" fill="#9c9fa2"/>
        </g>
        <g id="Grupo_10206" data-name="Grupo 10206">
          <path id="Trazado_9540" data-name="Trazado 9540" d="M1040.972,8205.784h-2.055l-.33.962h-1.534l2.106-5.535h1.571l2.106,5.535H1041.3Zm-.381-1.094-.646-1.843-.646,1.843Z" fill="#9c9fa2"/>
        </g>
        <g id="Grupo_10207" data-name="Grupo 10207">
          <path id="Trazado_9541" data-name="Trazado 9541" d="M1048.07,8206.746h-1.791l-1.372-2.129v2.129h-1.439v-5.535h2.238a2.212,2.212,0,0,1,.808.136,1.589,1.589,0,0,1,.569.37,1.557,1.557,0,0,1,.337.544,1.89,1.89,0,0,1,.114.661,1.627,1.627,0,0,1-.3,1.024,1.537,1.537,0,0,1-.9.531Zm-3.163-3.062h.271a1.048,1.048,0,0,0,.653-.176.676.676,0,0,0,0-1.013,1.048,1.048,0,0,0-.653-.177h-.271Z" fill="#9c9fa2"/>
        </g>
        <g id="Grupo_10208" data-name="Grupo 10208">
          <path id="Trazado_9542" data-name="Trazado 9542" d="M1050.111,8203.494l1.754-2.283h1.776l-2.195,2.621,2.4,2.914h-1.864l-1.872-2.4v2.4h-1.439v-5.535h1.439Z" fill="#9c9fa2"/>
        </g>
      </g>
      <g id="Grupo_10219" data-name="Grupo 10219" opacity="0.7">
        <g id="Grupo_10210" data-name="Grupo 10210">
          <path id="Trazado_9543" data-name="Trazado 9543" d="M1104.535,8202.628a1.787,1.787,0,0,0-.47-.283,1.282,1.282,0,0,0-.455-.092.738.738,0,0,0-.455.133.41.41,0,0,0-.176.346.341.341,0,0,0,.088.241.767.767,0,0,0,.231.165,1.919,1.919,0,0,0,.323.121c.12.034.238.071.356.111a2.216,2.216,0,0,1,1.031.627,1.545,1.545,0,0,1,.327,1.024,2.008,2.008,0,0,1-.143.771,1.6,1.6,0,0,1-.419.59,1.909,1.909,0,0,1-.675.382,2.833,2.833,0,0,1-.907.137,3.335,3.335,0,0,1-1.945-.624l.617-1.16a2.506,2.506,0,0,0,.638.426,1.543,1.543,0,0,0,.625.139.741.741,0,0,0,.524-.161.489.489,0,0,0,.173-.366.5.5,0,0,0-.044-.217.493.493,0,0,0-.147-.17,1.211,1.211,0,0,0-.268-.142c-.11-.045-.243-.093-.4-.147-.186-.059-.368-.124-.547-.193a1.757,1.757,0,0,1-.477-.284,1.306,1.306,0,0,1-.338-.443,1.577,1.577,0,0,1-.128-.679,1.961,1.961,0,0,1,.136-.746,1.655,1.655,0,0,1,.381-.572,1.7,1.7,0,0,1,.6-.369,2.233,2.233,0,0,1,.8-.134,3.512,3.512,0,0,1,.859.114,3.812,3.812,0,0,1,.859.334Z" fill="#9c9fa2"/>
        </g>
        <g id="Grupo_10211" data-name="Grupo 10211">
          <path id="Trazado_9544" data-name="Trazado 9544" d="M1109.526,8205.784h-2.055l-.33.962h-1.534l2.106-5.535h1.571l2.106,5.535h-1.534Zm-.381-1.094-.646-1.843-.646,1.843Z" fill="#9c9fa2"/>
        </g>
        <g id="Grupo_10212" data-name="Grupo 10212">
          <path id="Trazado_9545" data-name="Trazado 9545" d="M1113.879,8202.43v4.316h-1.438v-4.316h-1.182v-1.219h3.8v1.219Z" fill="#9c9fa2"/>
        </g>
        <g id="Grupo_10213" data-name="Grupo 10213">
          <path id="Trazado_9546" data-name="Trazado 9546" d="M1117.138,8201.211v3.01q0,.242.019.5a1.379,1.379,0,0,0,.109.459.78.78,0,0,0,.29.334,1.033,1.033,0,0,0,.559.128,1.011,1.011,0,0,0,.554-.128.807.807,0,0,0,.29-.334,1.311,1.311,0,0,0,.113-.459c.013-.169.019-.334.019-.5v-3.01h1.431v3.208a2.587,2.587,0,0,1-.591,1.886,3.074,3.074,0,0,1-3.637,0,2.579,2.579,0,0,1-.595-1.886v-3.208Z" fill="#9c9fa2"/>
        </g>
        <g id="Grupo_10214" data-name="Grupo 10214">
          <path id="Trazado_9547" data-name="Trazado 9547" d="M1126.284,8206.746h-1.791l-1.372-2.129v2.129h-1.439v-5.535h2.238a2.212,2.212,0,0,1,.808.136,1.589,1.589,0,0,1,.569.37,1.557,1.557,0,0,1,.337.544,1.89,1.89,0,0,1,.114.661,1.627,1.627,0,0,1-.3,1.024,1.537,1.537,0,0,1-.9.531Zm-3.163-3.062h.271a1.05,1.05,0,0,0,.653-.176.676.676,0,0,0,0-1.013,1.05,1.05,0,0,0-.653-.177h-.271Z" fill="#9c9fa2"/>
        </g>
        <g id="Grupo_10215" data-name="Grupo 10215">
          <path id="Trazado_9548" data-name="Trazado 9548" d="M1130.277,8205.784h-2.055l-.331.962h-1.534l2.107-5.535h1.571l2.106,5.535h-1.534Zm-.382-1.094-.646-1.843-.646,1.843Z" fill="#9c9fa2"/>
        </g>
        <g id="Grupo_10216" data-name="Grupo 10216">
          <path id="Trazado_9549" data-name="Trazado 9549" d="M1134.629,8202.43v4.316h-1.438v-4.316h-1.182v-1.219h3.8v1.219Z" fill="#9c9fa2"/>
        </g>
        <g id="Grupo_10217" data-name="Grupo 10217">
          <path id="Trazado_9550" data-name="Trazado 9550" d="M1139.6,8202.43h-1.71v.924h1.614v1.22h-1.614v.954h1.71v1.219h-3.149v-5.535h3.149Z" fill="#9c9fa2"/>
        </g>
        <g id="Grupo_10218" data-name="Grupo 10218">
          <path id="Trazado_9551" data-name="Trazado 9551" d="M1140.634,8201.211h2.129a2.5,2.5,0,0,1,1.06.229,2.9,2.9,0,0,1,.866.6,2.814,2.814,0,0,1,.584.881,2.72,2.72,0,0,1,0,2.1,2.8,2.8,0,0,1-.581.884,2.853,2.853,0,0,1-.865.608,2.524,2.524,0,0,1-1.068.229h-2.129Zm1.439,4.316h.329a1.8,1.8,0,0,0,.669-.117,1.438,1.438,0,0,0,.495-.323,1.377,1.377,0,0,0,.309-.488,1.763,1.763,0,0,0,.106-.62,1.706,1.706,0,0,0-.11-.616,1.386,1.386,0,0,0-.313-.491,1.426,1.426,0,0,0-.494-.324,1.776,1.776,0,0,0-.662-.117h-.329Z" fill="#9c9fa2"/>
        </g>
      </g>
      <g id="Grupo_10231" data-name="Grupo 10231" opacity="0.7">
        <g id="Grupo_10220" data-name="Grupo 10220">
          <path id="Trazado_9552" data-name="Trazado 9552" d="M1175.843,8201.211h2.129a2.5,2.5,0,0,1,1.06.229,2.9,2.9,0,0,1,.866.6,2.817,2.817,0,0,1,.584.881,2.72,2.72,0,0,1,0,2.1,2.821,2.821,0,0,1-.581.884,2.853,2.853,0,0,1-.865.608,2.524,2.524,0,0,1-1.068.229h-2.129Zm1.439,4.316h.329a1.8,1.8,0,0,0,.669-.117,1.438,1.438,0,0,0,.495-.323,1.361,1.361,0,0,0,.308-.488,1.739,1.739,0,0,0,.107-.62,1.706,1.706,0,0,0-.11-.616,1.4,1.4,0,0,0-.807-.815,1.775,1.775,0,0,0-.662-.117h-.329Z" fill="#9c9fa2"/>
        </g>
        <g id="Grupo_10221" data-name="Grupo 10221">
          <path id="Trazado_9553" data-name="Trazado 9553" d="M1184.762,8202.43h-1.711v.924h1.615v1.22h-1.615v.954h1.711v1.219h-3.15v-5.535h3.15Z" fill="#9c9fa2"/>
        </g>
        <g id="Grupo_10222" data-name="Grupo 10222">
          <path id="Trazado_9554" data-name="Trazado 9554" d="M1188.835,8202.628a1.771,1.771,0,0,0-.47-.283,1.278,1.278,0,0,0-.455-.092.739.739,0,0,0-.455.133.413.413,0,0,0-.176.346.341.341,0,0,0,.088.241.769.769,0,0,0,.231.165,1.919,1.919,0,0,0,.323.121c.12.034.238.071.356.111a2.211,2.211,0,0,1,1.031.627,1.539,1.539,0,0,1,.327,1.024,1.988,1.988,0,0,1-.143.771,1.585,1.585,0,0,1-.419.59,1.909,1.909,0,0,1-.675.382,2.831,2.831,0,0,1-.906.137,3.335,3.335,0,0,1-1.946-.624l.617-1.16a2.494,2.494,0,0,0,.639.426,1.534,1.534,0,0,0,.624.139.739.739,0,0,0,.524-.161.485.485,0,0,0,.173-.366.5.5,0,0,0-.044-.217.472.472,0,0,0-.147-.17,1.2,1.2,0,0,0-.267-.142c-.111-.045-.244-.093-.4-.147-.185-.059-.368-.124-.546-.193a1.746,1.746,0,0,1-.478-.284,1.292,1.292,0,0,1-.337-.443,1.564,1.564,0,0,1-.129-.679,1.959,1.959,0,0,1,.136-.746,1.642,1.642,0,0,1,.382-.572,1.68,1.68,0,0,1,.6-.369,2.23,2.23,0,0,1,.8-.134,3.5,3.5,0,0,1,.858.114,3.807,3.807,0,0,1,.859.334Z" fill="#9c9fa2"/>
        </g>
        <g id="Grupo_10223" data-name="Grupo 10223">
          <path id="Trazado_9555" data-name="Trazado 9555" d="M1193.827,8205.784h-2.056l-.331.962h-1.534l2.108-5.535h1.57l2.107,5.535h-1.534Zm-.382-1.094-.646-1.843-.646,1.843Z" fill="#9c9fa2"/>
        </g>
        <g id="Grupo_10224" data-name="Grupo 10224">
          <path id="Trazado_9556" data-name="Trazado 9556" d="M1198.179,8202.43v4.316h-1.438v-4.316h-1.182v-1.219h3.8v1.219Z" fill="#9c9fa2"/>
        </g>
        <g id="Grupo_10225" data-name="Grupo 10225">
          <path id="Trazado_9557" data-name="Trazado 9557" d="M1201.438,8201.211v3.01q0,.242.018.5a1.377,1.377,0,0,0,.11.459.78.78,0,0,0,.29.334,1.033,1.033,0,0,0,.559.128,1.011,1.011,0,0,0,.554-.128.815.815,0,0,0,.29-.334,1.332,1.332,0,0,0,.113-.459c.012-.169.019-.334.019-.5v-3.01h1.43v3.208a2.591,2.591,0,0,1-.59,1.886,3.073,3.073,0,0,1-3.637,0,2.579,2.579,0,0,1-.595-1.886v-3.208Z" fill="#9c9fa2"/>
        </g>
        <g id="Grupo_10226" data-name="Grupo 10226">
          <path id="Trazado_9558" data-name="Trazado 9558" d="M1210.585,8206.746h-1.792l-1.372-2.129v2.129h-1.439v-5.535h2.239a2.21,2.21,0,0,1,.807.136,1.512,1.512,0,0,1,.906.914,1.888,1.888,0,0,1,.115.661,1.627,1.627,0,0,1-.3,1.024,1.538,1.538,0,0,1-.9.531Zm-3.164-3.062h.271a1.055,1.055,0,0,0,.654-.176.678.678,0,0,0,0-1.013,1.055,1.055,0,0,0-.654-.177h-.271Z" fill="#9c9fa2"/>
        </g>
        <g id="Grupo_10227" data-name="Grupo 10227">
          <path id="Trazado_9559" data-name="Trazado 9559" d="M1214.577,8205.784h-2.055l-.33.962h-1.534l2.106-5.535h1.571l2.106,5.535h-1.534Zm-.381-1.094-.646-1.843-.646,1.843Z" fill="#9c9fa2"/>
        </g>
        <g id="Grupo_10228" data-name="Grupo 10228">
          <path id="Trazado_9560" data-name="Trazado 9560" d="M1218.93,8202.43v4.316h-1.439v-4.316h-1.182v-1.219h3.8v1.219Z" fill="#9c9fa2"/>
        </g>
        <g id="Grupo_10229" data-name="Grupo 10229">
          <path id="Trazado_9561" data-name="Trazado 9561" d="M1223.9,8202.43h-1.71v.924h1.615v1.22h-1.615v.954h1.71v1.219h-3.149v-5.535h3.149Z" fill="#9c9fa2"/>
        </g>
        <g id="Grupo_10230" data-name="Grupo 10230">
          <path id="Trazado_9562" data-name="Trazado 9562" d="M1224.934,8201.211h2.128a2.5,2.5,0,0,1,1.061.229,2.9,2.9,0,0,1,.866.6,2.8,2.8,0,0,1,.584.881,2.678,2.678,0,0,1,.213,1.054,2.713,2.713,0,0,1-.209,1.047,2.816,2.816,0,0,1-1.447,1.492,2.514,2.514,0,0,1-1.068.229h-2.128Zm1.438,4.316h.331a1.789,1.789,0,0,0,.668-.117,1.431,1.431,0,0,0,.5-.323,1.389,1.389,0,0,0,.308-.488,1.763,1.763,0,0,0,.106-.62,1.706,1.706,0,0,0-.109-.616,1.394,1.394,0,0,0-.809-.815,1.762,1.762,0,0,0-.66-.117h-.331Z" fill="#9c9fa2"/>
        </g>
      </g>
    </g>
    <g id="Grupo_10394" data-name="Grupo 10394">
      <g id="Grupo_10245" data-name="Grupo 10245">
        <g id="Grupo_10233" data-name="Grupo 10233">
          <path id="Trazado_9563" data-name="Trazado 9563" d="M804.259,8225.236l-.1,0a30.2,30.2,0,0,0-15.1,4.024l15.194,26.318Z" fill="#fef121"/>
        </g>
        <g id="Grupo_10234" data-name="Grupo 10234">
          <path id="Trazado_9564" data-name="Trazado 9564" d="M789.065,8229.259a30.246,30.246,0,0,0-11.154,11.105l26.348,15.213Z" fill="#8ad21b"/>
        </g>
        <g id="Grupo_10235" data-name="Grupo 10235">
          <path id="Trazado_9565" data-name="Trazado 9565" d="M830.46,8240.45a30.244,30.244,0,0,0-11.055-11.106l-15.146,26.233Z" fill="#f6ac43"/>
        </g>
        <g id="Grupo_10236" data-name="Grupo 10236">
          <path id="Trazado_9566" data-name="Trazado 9566" d="M819.405,8229.344a30.2,30.2,0,0,0-15.146-4.107v30.341Z" fill="#face32"/>
        </g>
        <g id="Grupo_10237" data-name="Grupo 10237">
          <path id="Trazado_9567" data-name="Trazado 9567" d="M834.5,8255.577a30.186,30.186,0,0,0-4.044-15.127l-26.2,15.127Z" fill="#fb7833"/>
        </g>
        <g id="Grupo_10238" data-name="Grupo 10238">
          <path id="Trazado_9568" data-name="Trazado 9568" d="M777.911,8240.364a30.194,30.194,0,0,0-4.093,15.213h30.441Z" fill="#34b534"/>
        </g>
        <g id="Grupo_10239" data-name="Grupo 10239">
          <path id="Trazado_9569" data-name="Trazado 9569" d="M777.911,8270.789a30.215,30.215,0,0,0,11.154,11.1l15.194-26.316Z" fill="#197ac4"/>
        </g>
        <g id="Grupo_10240" data-name="Grupo 10240">
          <path id="Trazado_9570" data-name="Trazado 9570" d="M773.818,8255.577a30.19,30.19,0,0,0,4.093,15.212l26.348-15.212Z" fill="#1bb3cf"/>
        </g>
        <g id="Grupo_10241" data-name="Grupo 10241">
          <path id="Trazado_9571" data-name="Trazado 9571" d="M804.259,8255.577l26.2,15.127a30.189,30.189,0,0,0,4.044-15.127Z" fill="#ff4929"/>
        </g>
        <g id="Grupo_10242" data-name="Grupo 10242">
          <path id="Trazado_9572" data-name="Trazado 9572" d="M819.405,8281.809a30.219,30.219,0,0,0,11.055-11.1l-26.2-15.127Z" fill="#d24499"/>
        </g>
        <g id="Grupo_10243" data-name="Grupo 10243">
          <path id="Trazado_9573" data-name="Trazado 9573" d="M789.065,8281.894a30.189,30.189,0,0,0,15.1,4.026l.1,0v-30.34Z" fill="#525eba"/>
        </g>
        <g id="Grupo_10244" data-name="Grupo 10244">
          <path id="Trazado_9574" data-name="Trazado 9574" d="M804.259,8285.917a30.171,30.171,0,0,0,15.146-4.108l-15.146-26.231Z" fill="#7e38b0"/>
        </g>
      </g>
      <g id="Grupo_10258" data-name="Grupo 10258">
        <g id="Grupo_10246" data-name="Grupo 10246">
          <path id="Trazado_9575" data-name="Trazado 9575" d="M963.527,8225.236l-.1,0a30.192,30.192,0,0,0-15.1,4.025l15.2,26.317Z" fill="#fef121"/>
        </g>
        <g id="Grupo_10247" data-name="Grupo 10247">
          <path id="Trazado_9576" data-name="Trazado 9576" d="M948.332,8229.26a30.234,30.234,0,0,0-11.154,11.1l26.349,15.213Z" fill="#8ad21b"/>
        </g>
        <g id="Grupo_10248" data-name="Grupo 10248">
          <path id="Trazado_9577" data-name="Trazado 9577" d="M989.728,8240.45a30.257,30.257,0,0,0-11.056-11.106l-15.145,26.233Z" fill="#f6ac43"/>
        </g>
        <g id="Grupo_10249" data-name="Grupo 10249">
          <path id="Trazado_9578" data-name="Trazado 9578" d="M978.672,8229.344a30.2,30.2,0,0,0-15.145-4.107v30.341Z" fill="#face32"/>
        </g>
        <g id="Grupo_10250" data-name="Grupo 10250">
          <path id="Trazado_9579" data-name="Trazado 9579" d="M993.772,8255.577a30.2,30.2,0,0,0-4.044-15.127l-26.2,15.127Z" fill="#fb7833"/>
        </g>
        <g id="Grupo_10251" data-name="Grupo 10251">
          <path id="Trazado_9580" data-name="Trazado 9580" d="M937.178,8240.364a30.194,30.194,0,0,0-4.093,15.213h30.442Z" fill="#34b534"/>
        </g>
        <g id="Grupo_10252" data-name="Grupo 10252">
          <path id="Trazado_9581" data-name="Trazado 9581" d="M937.178,8270.789a30.235,30.235,0,0,0,11.154,11.1l15.2-26.316Z" fill="#197ac4"/>
        </g>
        <g id="Grupo_10253" data-name="Grupo 10253">
          <path id="Trazado_9582" data-name="Trazado 9582" d="M933.085,8255.577a30.191,30.191,0,0,0,4.093,15.212l26.349-15.212Z" fill="#1bb3cf"/>
        </g>
        <g id="Grupo_10254" data-name="Grupo 10254">
          <path id="Trazado_9583" data-name="Trazado 9583" d="M963.527,8255.577l26.2,15.127a30.2,30.2,0,0,0,4.044-15.127Z" fill="#ff4929"/>
        </g>
        <g id="Grupo_10255" data-name="Grupo 10255">
          <path id="Trazado_9584" data-name="Trazado 9584" d="M978.672,8281.809a30.232,30.232,0,0,0,11.056-11.1l-26.2-15.127Z" fill="#d24499"/>
        </g>
        <g id="Grupo_10256" data-name="Grupo 10256">
          <path id="Trazado_9585" data-name="Trazado 9585" d="M948.332,8281.894a30.192,30.192,0,0,0,15.1,4.026l.1,0v-30.34Z" fill="#525eba"/>
        </g>
        <g id="Grupo_10257" data-name="Grupo 10257">
          <path id="Trazado_9586" data-name="Trazado 9586" d="M963.527,8285.917a30.17,30.17,0,0,0,15.145-4.108l-15.145-26.231Z" fill="#7e38b0"/>
        </g>
      </g>
      <g id="Grupo_10271" data-name="Grupo 10271">
        <g id="Grupo_10259" data-name="Grupo 10259">
          <path id="Trazado_9587" data-name="Trazado 9587" d="M1043.16,8225.236l-.1,0a30.189,30.189,0,0,0-15.1,4.025l15.194,26.317Z" fill="#fef121"/>
        </g>
        <g id="Grupo_10260" data-name="Grupo 10260">
          <path id="Trazado_9588" data-name="Trazado 9588" d="M1027.966,8229.26a30.235,30.235,0,0,0-11.154,11.1l26.348,15.213Z" fill="#8ad21b"/>
        </g>
        <g id="Grupo_10261" data-name="Grupo 10261">
          <path id="Trazado_9589" data-name="Trazado 9589" d="M1069.361,8240.45a30.238,30.238,0,0,0-11.056-11.106l-15.145,26.233Z" fill="#f6ac43"/>
        </g>
        <g id="Grupo_10262" data-name="Grupo 10262">
          <path id="Trazado_9590" data-name="Trazado 9590" d="M1058.305,8229.344a30.193,30.193,0,0,0-15.145-4.107v30.341Z" fill="#face32"/>
        </g>
        <g id="Grupo_10263" data-name="Grupo 10263">
          <path id="Trazado_9591" data-name="Trazado 9591" d="M1073.405,8255.577a30.186,30.186,0,0,0-4.044-15.127l-26.2,15.127Z" fill="#fb7833"/>
        </g>
        <g id="Grupo_10264" data-name="Grupo 10264">
          <path id="Trazado_9592" data-name="Trazado 9592" d="M1016.812,8240.364a30.194,30.194,0,0,0-4.093,15.213h30.441Z" fill="#34b534"/>
        </g>
        <g id="Grupo_10265" data-name="Grupo 10265">
          <path id="Trazado_9593" data-name="Trazado 9593" d="M1016.812,8270.789a30.215,30.215,0,0,0,11.154,11.1l15.194-26.316Z" fill="#197ac4"/>
        </g>
        <g id="Grupo_10266" data-name="Grupo 10266">
          <path id="Trazado_9594" data-name="Trazado 9594" d="M1012.719,8255.577a30.19,30.19,0,0,0,4.093,15.212l26.348-15.212Z" fill="#1bb3cf"/>
        </g>
        <g id="Grupo_10267" data-name="Grupo 10267">
          <path id="Trazado_9595" data-name="Trazado 9595" d="M1043.16,8255.577l26.2,15.127a30.189,30.189,0,0,0,4.044-15.127Z" fill="#ff4929"/>
        </g>
        <g id="Grupo_10268" data-name="Grupo 10268">
          <path id="Trazado_9596" data-name="Trazado 9596" d="M1058.305,8281.809a30.213,30.213,0,0,0,11.056-11.1l-26.2-15.127Z" fill="#d24499"/>
        </g>
        <g id="Grupo_10269" data-name="Grupo 10269">
          <path id="Trazado_9597" data-name="Trazado 9597" d="M1027.966,8281.894a30.189,30.189,0,0,0,15.1,4.026l.1,0v-30.34Z" fill="#525eba"/>
        </g>
        <g id="Grupo_10270" data-name="Grupo 10270">
          <path id="Trazado_9598" data-name="Trazado 9598" d="M1043.16,8285.917a30.164,30.164,0,0,0,15.145-4.108l-15.145-26.231Z" fill="#7e38b0"/>
        </g>
      </g>
      <g id="Grupo_10288" data-name="Grupo 10288">
        <g id="Grupo_10272" data-name="Grupo 10272">
          <path id="Trazado_9599" data-name="Trazado 9599" d="M1122.794,8225.236l-.1,0a30.189,30.189,0,0,0-15.1,4.025l15.194,26.317Z" fill="#fef121"/>
        </g>
        <g id="Grupo_10273" data-name="Grupo 10273">
          <path id="Trazado_9600" data-name="Trazado 9600" d="M1107.6,8229.26a30.24,30.24,0,0,0-11.155,11.105l26.349,15.212Z" fill="#8ad21b"/>
        </g>
        <g id="Grupo_10274" data-name="Grupo 10274">
          <path id="Trazado_9601" data-name="Trazado 9601" d="M1148.995,8240.45a30.237,30.237,0,0,0-11.056-11.106l-15.145,26.233Z" fill="#f6ac43"/>
        </g>
        <g id="Grupo_10275" data-name="Grupo 10275">
          <path id="Trazado_9602" data-name="Trazado 9602" d="M1137.939,8229.344a30.2,30.2,0,0,0-15.145-4.107v30.341Z" fill="#face32"/>
        </g>
        <g id="Grupo_10276" data-name="Grupo 10276">
          <path id="Trazado_9603" data-name="Trazado 9603" d="M1153.039,8255.577a30.2,30.2,0,0,0-4.044-15.127l-26.2,15.127Z" fill="#fb7833"/>
        </g>
        <g id="Grupo_10277" data-name="Grupo 10277">
          <path id="Trazado_9604" data-name="Trazado 9604" d="M1096.445,8240.365a30.188,30.188,0,0,0-4.093,15.212h30.442Z" fill="#34b534"/>
        </g>
        <g id="Grupo_10278" data-name="Grupo 10278">
          <path id="Trazado_9605" data-name="Trazado 9605" d="M1096.445,8270.789a30.228,30.228,0,0,0,11.155,11.1l15.194-26.316Z" fill="#197ac4"/>
        </g>
        <g id="Grupo_10279" data-name="Grupo 10279">
          <path id="Trazado_9606" data-name="Trazado 9606" d="M1092.352,8255.577a30.191,30.191,0,0,0,4.093,15.212l26.349-15.212Z" fill="#1bb3cf"/>
        </g>
        <g id="Grupo_10280" data-name="Grupo 10280">
          <path id="Trazado_9607" data-name="Trazado 9607" d="M1122.794,8255.577l26.2,15.127a30.2,30.2,0,0,0,4.044-15.127Z" fill="#ff4929"/>
        </g>
        <g id="Grupo_10281" data-name="Grupo 10281">
          <path id="Trazado_9608" data-name="Trazado 9608" d="M1137.939,8281.809a30.212,30.212,0,0,0,11.056-11.1l-26.2-15.127Z" fill="#d24499"/>
        </g>
        <g id="Grupo_10282" data-name="Grupo 10282">
          <path id="Trazado_9609" data-name="Trazado 9609" d="M1107.6,8281.894a30.179,30.179,0,0,0,15.1,4.026l.1,0v-30.341Z" fill="#525eba"/>
        </g>
        <g id="Grupo_10283" data-name="Grupo 10283">
          <path id="Trazado_9610" data-name="Trazado 9610" d="M1122.794,8285.918a30.181,30.181,0,0,0,15.145-4.109l-15.145-26.231Z" fill="#7e38b0"/>
        </g>
        <g id="Grupo_10284" data-name="Grupo 10284">
          <path id="Trazado_9611" data-name="Trazado 9611" d="M1143.866,8234.963l-12.914-8.027H1115.2V8225.8h16.078l13.188,8.2Z" fill="#2b2b2b"/>
        </g>
        <g id="Grupo_10285" data-name="Grupo 10285">
          <path id="Trazado_9612" data-name="Trazado 9612" d="M1116.244,8230.325a4.092,4.092,0,1,1,2.909-5A4.093,4.093,0,0,1,1116.244,8230.325Z" fill="#fef121"/>
          <path id="Trazado_9613" data-name="Trazado 9613" d="M1115.19,8231.029a4.666,4.666,0,1,1,1.2-.157A4.714,4.714,0,0,1,1115.19,8231.029Zm.013-8.188a3.531,3.531,0,1,0,1.766.479A3.519,3.519,0,0,0,1115.2,8222.841Z" fill="#2b2b2b"/>
        </g>
        <g id="Grupo_10286" data-name="Grupo 10286">
          <path id="Trazado_9614" data-name="Trazado 9614" d="M1132.162,8230.325a4.092,4.092,0,1,1,2.909-5A4.093,4.093,0,0,1,1132.162,8230.325Z" fill="#face32"/>
          <path id="Trazado_9615" data-name="Trazado 9615" d="M1131.116,8231.028a4.662,4.662,0,1,1,1.192-.156h0A4.7,4.7,0,0,1,1131.116,8231.028Zm0-8.187a3.528,3.528,0,1,0,3.41,2.624A3.511,3.511,0,0,0,1131.113,8222.842Z" fill="#2b2b2b"/>
        </g>
        <g id="Grupo_10287" data-name="Grupo 10287">
          <path id="Trazado_9616" data-name="Trazado 9616" d="M1145.212,8238.437a4.092,4.092,0,1,1,2.909-5A4.091,4.091,0,0,1,1145.212,8238.437Z" fill="#f6ac43"/>
          <path id="Trazado_9617" data-name="Trazado 9617" d="M1144.165,8239.141a4.658,4.658,0,1,1,1.193-.155A4.667,4.667,0,0,1,1144.165,8239.141Zm.006-8.187a3.576,3.576,0,0,0-.909.119,3.508,3.508,0,1,0,.909-.119Z" fill="#2b2b2b"/>
        </g>
      </g>
      <g id="Grupo_10301" data-name="Grupo 10301">
        <g id="Grupo_10289" data-name="Grupo 10289">
          <path id="Trazado_9618" data-name="Trazado 9618" d="M1202.428,8225.236l-.1,0a30.191,30.191,0,0,0-15.1,4.025l15.195,26.317Z" fill="#fef121"/>
        </g>
        <g id="Grupo_10290" data-name="Grupo 10290">
          <path id="Trazado_9619" data-name="Trazado 9619" d="M1187.233,8229.26a30.228,30.228,0,0,0-11.154,11.105l26.349,15.212Z" fill="#8ad21b"/>
        </g>
        <g id="Grupo_10291" data-name="Grupo 10291">
          <path id="Trazado_9620" data-name="Trazado 9620" d="M1228.629,8240.45a30.256,30.256,0,0,0-11.056-11.106l-15.145,26.233Z" fill="#f6ac43"/>
        </g>
        <g id="Grupo_10292" data-name="Grupo 10292">
          <path id="Trazado_9621" data-name="Trazado 9621" d="M1217.573,8229.344a30.2,30.2,0,0,0-15.145-4.107v30.341Z" fill="#face32"/>
        </g>
        <g id="Grupo_10293" data-name="Grupo 10293">
          <path id="Trazado_9622" data-name="Trazado 9622" d="M1232.673,8255.577a30.2,30.2,0,0,0-4.044-15.127l-26.2,15.127Z" fill="#fb7833"/>
        </g>
        <g id="Grupo_10294" data-name="Grupo 10294">
          <path id="Trazado_9623" data-name="Trazado 9623" d="M1176.079,8240.365a30.187,30.187,0,0,0-4.093,15.212h30.442Z" fill="#34b534"/>
        </g>
        <g id="Grupo_10295" data-name="Grupo 10295">
          <path id="Trazado_9624" data-name="Trazado 9624" d="M1176.079,8270.789a30.216,30.216,0,0,0,11.154,11.1l15.195-26.316Z" fill="#197ac4"/>
        </g>
        <g id="Grupo_10296" data-name="Grupo 10296">
          <path id="Trazado_9625" data-name="Trazado 9625" d="M1171.986,8255.577a30.19,30.19,0,0,0,4.093,15.212l26.349-15.212Z" fill="#1bb3cf"/>
        </g>
        <g id="Grupo_10297" data-name="Grupo 10297">
          <path id="Trazado_9626" data-name="Trazado 9626" d="M1202.428,8255.577l26.2,15.127a30.2,30.2,0,0,0,4.044-15.127Z" fill="#ff4929"/>
        </g>
        <g id="Grupo_10298" data-name="Grupo 10298">
          <path id="Trazado_9627" data-name="Trazado 9627" d="M1217.573,8281.809a30.231,30.231,0,0,0,11.056-11.1l-26.2-15.127Z" fill="#d24499"/>
        </g>
        <g id="Grupo_10299" data-name="Grupo 10299">
          <path id="Trazado_9628" data-name="Trazado 9628" d="M1187.233,8281.894a30.182,30.182,0,0,0,15.1,4.026l.1,0v-30.341Z" fill="#525eba"/>
        </g>
        <g id="Grupo_10300" data-name="Grupo 10300">
          <path id="Trazado_9629" data-name="Trazado 9629" d="M1202.428,8285.918a30.181,30.181,0,0,0,15.145-4.109l-15.145-26.231Z" fill="#7e38b0"/>
        </g>
      </g>
      <g id="Grupo_10315" data-name="Grupo 10315" opacity="0.7">
        <g id="Grupo_10302" data-name="Grupo 10302">
          <path id="Trazado_9630" data-name="Trazado 9630" d="M932.977,8294.639a1.514,1.514,0,0,0-1.214-.6,1.469,1.469,0,0,0-.589.117,1.418,1.418,0,0,0-.466.313,1.436,1.436,0,0,0-.307.474,1.546,1.546,0,0,0-.112.592,1.573,1.573,0,0,0,.112.6,1.436,1.436,0,0,0,.777.794,1.439,1.439,0,0,0,.578.116,1.638,1.638,0,0,0,1.221-.578v1.677l-.144.052a4.267,4.267,0,0,1-.608.169,2.929,2.929,0,0,1-.556.054,2.857,2.857,0,0,1-1.991-.812,3.01,3.01,0,0,1-.632-.917,2.807,2.807,0,0,1-.239-1.161,2.776,2.776,0,0,1,.235-1.152,2.877,2.877,0,0,1,2.634-1.709,3.042,3.042,0,0,1,.64.068,3.846,3.846,0,0,1,.661.214Z" fill="#9c9fa2"/>
        </g>
        <g id="Grupo_10303" data-name="Grupo 10303">
          <path id="Trazado_9631" data-name="Trazado 9631" d="M933.707,8295.543a2.808,2.808,0,0,1,1.8-2.656,3.475,3.475,0,0,1,2.432,0,2.909,2.909,0,0,1,.958.61,2.8,2.8,0,0,1,.624.915,2.952,2.952,0,0,1,0,2.261,2.78,2.78,0,0,1-.624.915,2.9,2.9,0,0,1-.958.611,3.475,3.475,0,0,1-2.432,0,2.86,2.86,0,0,1-.95-.611,2.833,2.833,0,0,1-.846-2.045Zm1.482,0a1.424,1.424,0,0,0,.123.6,1.5,1.5,0,0,0,.82.792,1.575,1.575,0,0,0,1.669-.314,1.485,1.485,0,0,0,.337-.478,1.532,1.532,0,0,0,0-1.2,1.491,1.491,0,0,0-.337-.477,1.585,1.585,0,0,0-1.669-.315,1.5,1.5,0,0,0-.82.792A1.432,1.432,0,0,0,935.189,8295.543Z" fill="#9c9fa2"/>
        </g>
        <g id="Grupo_10304" data-name="Grupo 10304">
          <path id="Trazado_9632" data-name="Trazado 9632" d="M940.392,8298.267l.925-5.448h1.4l1.091,2.9,1.084-2.9h1.4l.926,5.448h-1.41l-.47-3.136-1.286,3.136h-.564l-1.221-3.136-.47,3.136Z" fill="#9c9fa2"/>
        </g>
        <g id="Grupo_10305" data-name="Grupo 10305">
          <path id="Trazado_9633" data-name="Trazado 9633" d="M949.533,8298.267h-1.416v-5.448h2.255a1.929,1.929,0,0,1,1.4.477,2.1,2.1,0,0,1,0,2.689,1.929,1.929,0,0,1-1.4.477h-.839Zm0-2.948H950c.519,0,.78-.226.78-.68s-.261-.679-.78-.679h-.471Z" fill="#9c9fa2"/>
        </g>
        <g id="Grupo_10306" data-name="Grupo 10306">
          <path id="Trazado_9634" data-name="Trazado 9634" d="M954.433,8292.818v4.249h1.7v1.2h-3.115v-5.448Z" fill="#9c9fa2"/>
        </g>
        <g id="Grupo_10307" data-name="Grupo 10307">
          <path id="Trazado_9635" data-name="Trazado 9635" d="M959.962,8294.017h-1.684v.912h1.59v1.2h-1.59v.939h1.684v1.2h-3.1v-5.448h3.1Z" fill="#9c9fa2"/>
        </g>
        <g id="Grupo_10308" data-name="Grupo 10308">
          <path id="Trazado_9636" data-name="Trazado 9636" d="M960.735,8298.267l.925-5.448h1.4l1.092,2.9,1.084-2.9h1.4l.925,5.448h-1.409l-.47-3.136-1.286,3.136h-.565l-1.221-3.136-.469,3.136Z" fill="#9c9fa2"/>
        </g>
        <g id="Grupo_10309" data-name="Grupo 10309">
          <path id="Trazado_9637" data-name="Trazado 9637" d="M971.562,8294.017h-1.685v.912h1.591v1.2h-1.591v.939h1.685v1.2h-3.1v-5.448h3.1Z" fill="#9c9fa2"/>
        </g>
        <g id="Grupo_10310" data-name="Grupo 10310">
          <path id="Trazado_9638" data-name="Trazado 9638" d="M972.58,8298.267v-5.448H974l2.617,3.332v-3.332h1.409v5.448h-1.409L974,8294.935v3.332Z" fill="#9c9fa2"/>
        </g>
        <g id="Grupo_10311" data-name="Grupo 10311">
          <path id="Trazado_9639" data-name="Trazado 9639" d="M981.231,8294.017v4.25h-1.417v-4.25h-1.163v-1.2H982.4v1.2Z" fill="#9c9fa2"/>
        </g>
        <g id="Grupo_10312" data-name="Grupo 10312">
          <path id="Trazado_9640" data-name="Trazado 9640" d="M986.109,8297.32h-2.024l-.325.946h-1.51l2.074-5.448h1.547l2.074,5.448h-1.511Zm-.376-1.076-.635-1.814-.637,1.814Z" fill="#9c9fa2"/>
        </g>
        <g id="Grupo_10313" data-name="Grupo 10313">
          <path id="Trazado_9641" data-name="Trazado 9641" d="M993.1,8298.267h-1.764l-1.352-2.1v2.1h-1.416v-5.448h2.2a2.166,2.166,0,0,1,.795.134,1.521,1.521,0,0,1,.56.365,1.541,1.541,0,0,1,.333.533,1.892,1.892,0,0,1,.112.651,1.6,1.6,0,0,1-.3,1.009,1.511,1.511,0,0,1-.885.523Zm-3.116-3.013h.268a1.035,1.035,0,0,0,.643-.174.667.667,0,0,0,0-1,1.035,1.035,0,0,0-.643-.173h-.268Z" fill="#9c9fa2"/>
        </g>
        <g id="Grupo_10314" data-name="Grupo 10314">
          <path id="Trazado_9642" data-name="Trazado 9642" d="M994.745,8295.651l-1.987-2.833h1.691l1.012,1.488,1-1.488h1.692l-1.995,2.833v2.615h-1.417Z" fill="#9c9fa2"/>
        </g>
      </g>
      <g id="Grupo_10325" data-name="Grupo 10325" opacity="0.7">
        <g id="Grupo_10316" data-name="Grupo 10316">
          <path id="Trazado_9643" data-name="Trazado 9643" d="M1100.93,8297.32h-2.023l-.326.946h-1.51l2.074-5.448h1.547l2.074,5.448h-1.511Zm-.375-1.076-.636-1.814-.636,1.814Z" fill="#9c9fa2"/>
        </g>
        <g id="Grupo_10317" data-name="Grupo 10317">
          <path id="Trazado_9644" data-name="Trazado 9644" d="M1103.388,8298.267v-5.448h1.417l2.616,3.332v-3.332h1.409v5.448h-1.409l-2.616-3.332v3.332Z" fill="#9c9fa2"/>
        </g>
        <g id="Grupo_10318" data-name="Grupo 10318">
          <path id="Trazado_9645" data-name="Trazado 9645" d="M1113.324,8297.32H1111.3l-.325.946h-1.51l2.074-5.448h1.547l2.074,5.448h-1.511Zm-.375-1.076-.637-1.814-.636,1.814Z" fill="#9c9fa2"/>
        </g>
        <g id="Grupo_10319" data-name="Grupo 10319">
          <path id="Trazado_9646" data-name="Trazado 9646" d="M1117.2,8292.818v4.249h1.7v1.2h-3.116v-5.448Z" fill="#9c9fa2"/>
        </g>
        <g id="Grupo_10320" data-name="Grupo 10320">
          <path id="Trazado_9647" data-name="Trazado 9647" d="M1119.272,8295.543a2.837,2.837,0,0,1,.845-2.046,2.863,2.863,0,0,1,.95-.61,3.475,3.475,0,0,1,2.432,0,2.9,2.9,0,0,1,.958.61,2.869,2.869,0,0,1,0,4.091,2.887,2.887,0,0,1-.958.611,3.475,3.475,0,0,1-2.432,0,2.85,2.85,0,0,1-.95-.611,2.788,2.788,0,0,1-.621-.915A2.822,2.822,0,0,1,1119.272,8295.543Zm1.481,0a1.44,1.44,0,0,0,.123.6,1.5,1.5,0,0,0,.82.792,1.578,1.578,0,0,0,1.67-.314,1.482,1.482,0,0,0,.336-.478,1.521,1.521,0,0,0,0-1.2,1.489,1.489,0,0,0-.336-.477,1.587,1.587,0,0,0-1.67-.315,1.515,1.515,0,0,0-.488.315,1.493,1.493,0,0,0-.332.477A1.447,1.447,0,0,0,1120.753,8295.543Z" fill="#9c9fa2"/>
        </g>
        <g id="Grupo_10321" data-name="Grupo 10321">
          <path id="Trazado_9648" data-name="Trazado 9648" d="M1128.854,8295.218h2.811c0,.288-.012.552-.035.787a2.791,2.791,0,0,1-.145.658,2.613,2.613,0,0,1-.413.755,2.379,2.379,0,0,1-.61.55,2.893,2.893,0,0,1-.769.336,3.346,3.346,0,0,1-.882.115,3.117,3.117,0,0,1-1.16-.209,2.6,2.6,0,0,1-.9-.59,2.654,2.654,0,0,1-.587-.91,3.408,3.408,0,0,1,0-2.342,2.571,2.571,0,0,1,.585-.907,2.667,2.667,0,0,1,.915-.585,3.239,3.239,0,0,1,1.192-.209,2.961,2.961,0,0,1,1.5.368,2.548,2.548,0,0,1,1.019,1.142l-1.344.557a1.36,1.36,0,0,0-.488-.644,1.225,1.225,0,0,0-.683-.2,1.363,1.363,0,0,0-.578.119,1.263,1.263,0,0,0-.445.34,1.638,1.638,0,0,0-.289.531,2.2,2.2,0,0,0-.1.694,2.162,2.162,0,0,0,.091.643,1.462,1.462,0,0,0,.271.514,1.238,1.238,0,0,0,.448.337,1.519,1.519,0,0,0,.622.119,1.8,1.8,0,0,0,.405-.048,1.089,1.089,0,0,0,.35-.151.89.89,0,0,0,.257-.271,1.107,1.107,0,0,0,.137-.4h-1.164Z" fill="#9c9fa2"/>
        </g>
        <g id="Grupo_10322" data-name="Grupo 10322">
          <path id="Trazado_9649" data-name="Trazado 9649" d="M1132.317,8295.543a2.837,2.837,0,0,1,.845-2.046,2.883,2.883,0,0,1,.95-.61,3.477,3.477,0,0,1,2.433,0,2.92,2.92,0,0,1,.958.61,2.869,2.869,0,0,1,0,4.091,2.907,2.907,0,0,1-.958.611,3.477,3.477,0,0,1-2.433,0,2.87,2.87,0,0,1-.95-.611,2.837,2.837,0,0,1-.845-2.045Zm1.481,0a1.44,1.44,0,0,0,.123.6,1.5,1.5,0,0,0,.821.792,1.575,1.575,0,0,0,1.669-.314,1.48,1.48,0,0,0,.336-.478,1.52,1.52,0,0,0,0-1.2,1.486,1.486,0,0,0-.336-.477,1.585,1.585,0,0,0-1.669-.315,1.511,1.511,0,0,0-.821.792A1.448,1.448,0,0,0,1133.8,8295.543Z" fill="#9c9fa2"/>
        </g>
        <g id="Grupo_10323" data-name="Grupo 10323">
          <path id="Trazado_9650" data-name="Trazado 9650" d="M1140.664,8292.818v2.964c0,.158.006.32.018.487a1.314,1.314,0,0,0,.108.451.744.744,0,0,0,.286.329,1.009,1.009,0,0,0,.549.126,1,1,0,0,0,.546-.126.79.79,0,0,0,.285-.329,1.3,1.3,0,0,0,.112-.451c.012-.167.018-.329.018-.487v-2.964h1.409v3.157a2.551,2.551,0,0,1-.582,1.858,3.033,3.033,0,0,1-3.581,0,2.547,2.547,0,0,1-.585-1.858v-3.157Z" fill="#9c9fa2"/>
        </g>
        <g id="Grupo_10324" data-name="Grupo 10324">
          <path id="Trazado_9651" data-name="Trazado 9651" d="M1148.129,8294.213a1.818,1.818,0,0,0-.463-.279,1.265,1.265,0,0,0-.448-.089.73.73,0,0,0-.448.129.408.408,0,0,0-.173.341.335.335,0,0,0,.086.238.719.719,0,0,0,.228.162,2,2,0,0,0,.317.12c.119.033.236.07.351.108a2.177,2.177,0,0,1,1.015.617,1.524,1.524,0,0,1,.322,1.009,1.988,1.988,0,0,1-.14.759,1.577,1.577,0,0,1-.413.582,1.861,1.861,0,0,1-.665.375,2.741,2.741,0,0,1-.892.134,3.283,3.283,0,0,1-1.915-.614l.607-1.142a2.5,2.5,0,0,0,.629.42,1.533,1.533,0,0,0,.613.137.733.733,0,0,0,.518-.159.495.495,0,0,0,.126-.574.451.451,0,0,0-.145-.167,1.145,1.145,0,0,0-.263-.141c-.108-.043-.24-.092-.394-.145-.183-.059-.363-.122-.538-.191a1.745,1.745,0,0,1-.471-.277,1.3,1.3,0,0,1-.331-.438,1.535,1.535,0,0,1-.127-.668,1.96,1.96,0,0,1,.133-.734,1.658,1.658,0,0,1,.376-.563,1.71,1.71,0,0,1,.593-.365,2.261,2.261,0,0,1,.785-.129,3.46,3.46,0,0,1,.845.111,3.753,3.753,0,0,1,.845.329Z" fill="#9c9fa2"/>
        </g>
      </g>
      <g id="Grupo_10331" data-name="Grupo 10331" opacity="0.7">
        <g id="Grupo_10326" data-name="Grupo 10326">
          <path id="Trazado_9652" data-name="Trazado 9652" d="M1034.417,8294.019v4.249H1033v-4.249h-1.164v-1.2h3.744v1.2Z" fill="#9c9fa2"/>
        </g>
        <g id="Grupo_10327" data-name="Grupo 10327">
          <path id="Trazado_9653" data-name="Trazado 9653" d="M1040.74,8298.268h-1.763l-1.351-2.1v2.1h-1.417v-5.448h2.2a2.164,2.164,0,0,1,.794.134,1.495,1.495,0,0,1,.893.9,1.857,1.857,0,0,1,.111.65,1.592,1.592,0,0,1-.3,1.009,1.5,1.5,0,0,1-.884.523Zm-3.114-3.013h.267a1.029,1.029,0,0,0,.643-.174.667.667,0,0,0,0-1,1.035,1.035,0,0,0-.643-.173h-.267Z" fill="#9c9fa2"/>
        </g>
        <g id="Grupo_10328" data-name="Grupo 10328">
          <path id="Trazado_9654" data-name="Trazado 9654" d="M1042.75,8292.819v5.448h-1.417v-5.448Z" fill="#9c9fa2"/>
        </g>
        <g id="Grupo_10329" data-name="Grupo 10329">
          <path id="Trazado_9655" data-name="Trazado 9655" d="M1047.229,8297.322h-2.023l-.326.945h-1.51l2.075-5.448h1.546l2.074,5.448h-1.511Zm-.375-1.077-.636-1.814-.636,1.814Z" fill="#9c9fa2"/>
        </g>
        <g id="Grupo_10330" data-name="Grupo 10330">
          <path id="Trazado_9656" data-name="Trazado 9656" d="M1049.687,8292.819h2.1a2.47,2.47,0,0,1,1.044.225,2.819,2.819,0,0,1,.853.6,2.764,2.764,0,0,1,.574.866,2.634,2.634,0,0,1,.21,1.038,2.664,2.664,0,0,1-.206,1.03,2.777,2.777,0,0,1-1.424,1.47,2.473,2.473,0,0,1-1.051.224h-2.1Zm1.417,4.249h.325a1.732,1.732,0,0,0,.657-.115,1.422,1.422,0,0,0,.488-.317,1.378,1.378,0,0,0,.3-.48,1.729,1.729,0,0,0,.1-.611,1.665,1.665,0,0,0-.108-.607,1.356,1.356,0,0,0-.8-.8,1.72,1.72,0,0,0-.65-.116h-.325Z" fill="#9c9fa2"/>
        </g>
      </g>
      <g id="Grupo_10340" data-name="Grupo 10340" opacity="0.7">
        <g id="Grupo_10332" data-name="Grupo 10332">
          <path id="Trazado_9657" data-name="Trazado 9657" d="M1187.236,8294.017v4.25h-1.417v-4.25h-1.164v-1.2h3.744v1.2Z" fill="#9c9fa2"/>
        </g>
        <g id="Grupo_10333" data-name="Grupo 10333">
          <path id="Trazado_9658" data-name="Trazado 9658" d="M1192.129,8294.017h-1.684v.912h1.59v1.2h-1.59v.939h1.684v1.2h-3.1v-5.448h3.1Z" fill="#9c9fa2"/>
        </g>
        <g id="Grupo_10334" data-name="Grupo 10334">
          <path id="Trazado_9659" data-name="Trazado 9659" d="M1195.215,8294.017v4.25H1193.8v-4.25h-1.164v-1.2h3.744v1.2Z" fill="#9c9fa2"/>
        </g>
        <g id="Grupo_10335" data-name="Grupo 10335">
          <path id="Trazado_9660" data-name="Trazado 9660" d="M1201.537,8298.267h-1.763l-1.351-2.1v2.1h-1.417v-5.448h2.205a2.164,2.164,0,0,1,.794.134,1.5,1.5,0,0,1,.893.9,1.866,1.866,0,0,1,.111.651,1.6,1.6,0,0,1-.3,1.009,1.511,1.511,0,0,1-.885.523Zm-3.114-3.013h.267a1.033,1.033,0,0,0,.643-.174.667.667,0,0,0,0-1,1.033,1.033,0,0,0-.643-.173h-.267Z" fill="#9c9fa2"/>
        </g>
        <g id="Grupo_10336" data-name="Grupo 10336">
          <path id="Trazado_9661" data-name="Trazado 9661" d="M1205.468,8297.32h-2.023l-.325.946h-1.51l2.074-5.448h1.547l2.074,5.448h-1.511Zm-.375-1.076-.636-1.814-.636,1.814Z" fill="#9c9fa2"/>
        </g>
        <g id="Grupo_10337" data-name="Grupo 10337">
          <path id="Trazado_9662" data-name="Trazado 9662" d="M1207.926,8292.818h2.1a2.459,2.459,0,0,1,1.044.225,2.843,2.843,0,0,1,.853.6,2.781,2.781,0,0,1,.574.866,2.669,2.669,0,0,1,0,2.068,2.741,2.741,0,0,1-.571.87,2.778,2.778,0,0,1-.853.6,2.468,2.468,0,0,1-1.05.224h-2.1Zm1.417,4.249h.326a1.739,1.739,0,0,0,.657-.115,1.433,1.433,0,0,0,.487-.317,1.376,1.376,0,0,0,.305-.481,1.742,1.742,0,0,0,.1-.61,1.675,1.675,0,0,0-.109-.608,1.4,1.4,0,0,0-.306-.483,1.433,1.433,0,0,0-.488-.317,1.723,1.723,0,0,0-.65-.117h-.326Z" fill="#9c9fa2"/>
        </g>
        <g id="Grupo_10338" data-name="Grupo 10338">
          <path id="Trazado_9663" data-name="Trazado 9663" d="M1215.024,8292.818v5.448h-1.417v-5.448Z" fill="#9c9fa2"/>
        </g>
        <g id="Grupo_10339" data-name="Grupo 10339">
          <path id="Trazado_9664" data-name="Trazado 9664" d="M1220.089,8294.639a1.517,1.517,0,0,0-1.215-.6,1.461,1.461,0,0,0-.588.117,1.4,1.4,0,0,0-.467.313,1.452,1.452,0,0,0-.306.474,1.529,1.529,0,0,0-.113.592,1.556,1.556,0,0,0,.113.6,1.487,1.487,0,0,0,.309.478,1.467,1.467,0,0,0,.467.316,1.441,1.441,0,0,0,.579.116,1.641,1.641,0,0,0,1.221-.578v1.677l-.145.052a4.29,4.29,0,0,1-.607.169,2.94,2.94,0,0,1-.557.054,2.852,2.852,0,0,1-1.991-.812,3.011,3.011,0,0,1-.632-.917,2.953,2.953,0,0,1,0-2.313,2.86,2.86,0,0,1,.63-.9,2.9,2.9,0,0,1,.913-.592,2.866,2.866,0,0,1,1.092-.213,3.04,3.04,0,0,1,.639.068,3.883,3.883,0,0,1,.662.214Z" fill="#9c9fa2"/>
        </g>
      </g>
      <g id="Grupo_10348" data-name="Grupo 10348" opacity="0.7">
        <g id="Grupo_10341" data-name="Grupo 10341">
          <path id="Trazado_9665" data-name="Trazado 9665" d="M787.826,8298.268H786.41v-5.448h2.255a1.931,1.931,0,0,1,1.405.477,2.1,2.1,0,0,1,0,2.689,1.931,1.931,0,0,1-1.405.477h-.839Zm0-2.948h.47c.52,0,.781-.226.781-.68s-.261-.679-.781-.679h-.47Z" fill="#9c9fa2"/>
        </g>
        <g id="Grupo_10342" data-name="Grupo 10342">
          <path id="Trazado_9666" data-name="Trazado 9666" d="M795.841,8298.268h-1.763l-1.352-2.1v2.1h-1.417v-5.448h2.2a2.173,2.173,0,0,1,.8.134,1.5,1.5,0,0,1,.892.9,1.858,1.858,0,0,1,.112.65,1.6,1.6,0,0,1-.3,1.009,1.509,1.509,0,0,1-.886.523Zm-3.115-3.013h.268a1.031,1.031,0,0,0,.643-.174.667.667,0,0,0,0-1,1.037,1.037,0,0,0-.643-.173h-.268Z" fill="#9c9fa2"/>
        </g>
        <g id="Grupo_10343" data-name="Grupo 10343">
          <path id="Trazado_9667" data-name="Trazado 9667" d="M797.85,8292.819v5.448h-1.417v-5.448Z" fill="#9c9fa2"/>
        </g>
        <g id="Grupo_10344" data-name="Grupo 10344">
          <path id="Trazado_9668" data-name="Trazado 9668" d="M798.746,8298.268l.925-5.448h1.4l1.091,2.9,1.084-2.9h1.4l.925,5.448h-1.409l-.47-3.136-1.286,3.136h-.564l-1.221-3.136-.47,3.136Z" fill="#9c9fa2"/>
        </g>
        <g id="Grupo_10345" data-name="Grupo 10345">
          <path id="Trazado_9669" data-name="Trazado 9669" d="M809.81,8297.322h-2.023l-.325.945h-1.511l2.075-5.448h1.546l2.074,5.448h-1.51Zm-.376-1.077-.635-1.814-.636,1.814Z" fill="#9c9fa2"/>
        </g>
        <g id="Grupo_10346" data-name="Grupo 10346">
          <path id="Trazado_9670" data-name="Trazado 9670" d="M816.8,8298.268h-1.763l-1.352-2.1v2.1h-1.417v-5.448h2.2a2.175,2.175,0,0,1,.8.134,1.5,1.5,0,0,1,.892.9,1.858,1.858,0,0,1,.112.65,1.6,1.6,0,0,1-.3,1.009,1.506,1.506,0,0,1-.885.523Zm-3.115-3.013h.268a1.03,1.03,0,0,0,.643-.174.667.667,0,0,0,0-1,1.037,1.037,0,0,0-.643-.173h-.268Z" fill="#9c9fa2"/>
        </g>
        <g id="Grupo_10347" data-name="Grupo 10347">
          <path id="Trazado_9671" data-name="Trazado 9671" d="M818.446,8295.652l-1.987-2.833h1.691l1.012,1.488,1-1.488h1.692l-2,2.833v2.615h-1.416Z" fill="#9c9fa2"/>
        </g>
      </g>
      <g id="Grupo_10355" data-name="Grupo 10355" opacity="0.7">
        <g id="Grupo_10349" data-name="Grupo 10349">
          <path id="Trazado_9672" data-name="Trazado 9672" d="M871.595,8294.213a1.783,1.783,0,0,0-.463-.279,1.257,1.257,0,0,0-.448-.089.732.732,0,0,0-.448.129.41.41,0,0,0-.173.341.34.34,0,0,0,.086.238.73.73,0,0,0,.228.162,1.982,1.982,0,0,0,.318.12c.118.033.235.07.351.108a2.177,2.177,0,0,1,1.015.617,1.529,1.529,0,0,1,.322,1.009,1.97,1.97,0,0,1-.141.759,1.6,1.6,0,0,1-.412.582,1.87,1.87,0,0,1-.665.375,2.75,2.75,0,0,1-.892.134,3.288,3.288,0,0,1-1.916-.614l.608-1.142a2.492,2.492,0,0,0,.628.42,1.538,1.538,0,0,0,.614.137.73.73,0,0,0,.517-.159.486.486,0,0,0,.17-.361.5.5,0,0,0-.043-.213.469.469,0,0,0-.145-.167,1.187,1.187,0,0,0-.263-.141c-.109-.043-.24-.092-.394-.145-.184-.059-.363-.122-.539-.191a1.722,1.722,0,0,1-.47-.277,1.3,1.3,0,0,1-.332-.438,1.534,1.534,0,0,1-.127-.668,1.94,1.94,0,0,1,.134-.734,1.63,1.63,0,0,1,.376-.563,1.693,1.693,0,0,1,.593-.365,2.254,2.254,0,0,1,.783-.129,3.455,3.455,0,0,1,.846.111,3.76,3.76,0,0,1,.846.329Z" fill="#9c9fa2"/>
        </g>
        <g id="Grupo_10350" data-name="Grupo 10350">
          <path id="Trazado_9673" data-name="Trazado 9673" d="M873.026,8295.543a2.808,2.808,0,0,1,1.8-2.656,3.475,3.475,0,0,1,2.432,0,2.9,2.9,0,0,1,.957.61,2.786,2.786,0,0,1,.625.915,2.83,2.83,0,0,1,.224,1.131,2.909,2.909,0,0,1-.184,1.047,2.652,2.652,0,0,1-.531.861l.925.968-1.3.2-.5-.513a3.628,3.628,0,0,1-.676.228,3.371,3.371,0,0,1-.755.083,3.265,3.265,0,0,1-1.218-.22,2.86,2.86,0,0,1-.95-.611,2.8,2.8,0,0,1-.622-.915A2.839,2.839,0,0,1,873.026,8295.543Zm1.482,0a1.439,1.439,0,0,0,.122.6,1.5,1.5,0,0,0,.821.792,1.547,1.547,0,0,0,.589.112,1.637,1.637,0,0,0,.375-.043l-.809-.853,1.337-.166.376.4a1.4,1.4,0,0,0,.26-.838,1.447,1.447,0,0,0-.123-.6,1.472,1.472,0,0,0-.336-.477,1.585,1.585,0,0,0-1.669-.315,1.511,1.511,0,0,0-.821.792A1.447,1.447,0,0,0,874.508,8295.543Z" fill="#9c9fa2"/>
        </g>
        <g id="Grupo_10351" data-name="Grupo 10351">
          <path id="Trazado_9674" data-name="Trazado 9674" d="M881.373,8292.818v2.964c0,.158.006.32.018.487a1.339,1.339,0,0,0,.108.451.758.758,0,0,0,.286.329,1.01,1.01,0,0,0,.549.126.994.994,0,0,0,.546-.126.789.789,0,0,0,.285-.329,1.271,1.271,0,0,0,.112-.451c.012-.167.018-.329.018-.487v-2.964h1.41v3.157a2.555,2.555,0,0,1-.582,1.858,3.033,3.033,0,0,1-3.581,0,2.542,2.542,0,0,1-.586-1.858v-3.157Z" fill="#9c9fa2"/>
        </g>
        <g id="Grupo_10352" data-name="Grupo 10352">
          <path id="Trazado_9675" data-name="Trazado 9675" d="M889,8297.32h-2.023l-.326.946h-1.51l2.075-5.448h1.546l2.074,5.448h-1.51Zm-.376-1.076-.635-1.814-.636,1.814Z" fill="#9c9fa2"/>
        </g>
        <g id="Grupo_10353" data-name="Grupo 10353">
          <path id="Trazado_9676" data-name="Trazado 9676" d="M895.993,8298.267h-1.764l-1.351-2.1v2.1h-1.417v-5.448h2.2a2.175,2.175,0,0,1,.8.134,1.506,1.506,0,0,1,.892.9,1.892,1.892,0,0,1,.112.651,1.6,1.6,0,0,1-.3,1.009,1.511,1.511,0,0,1-.885.523Zm-3.115-3.013h.267a1.038,1.038,0,0,0,.644-.174.667.667,0,0,0,0-1,1.038,1.038,0,0,0-.644-.173h-.267Z" fill="#9c9fa2"/>
        </g>
        <g id="Grupo_10354" data-name="Grupo 10354">
          <path id="Trazado_9677" data-name="Trazado 9677" d="M899.686,8294.017H898v.912h1.59v1.2H898v.939h1.684v1.2h-3.1v-5.448h3.1Z" fill="#9c9fa2"/>
        </g>
      </g>
      <g id="Grupo_10360" data-name="Grupo 10360">
        <g id="Grupo_10356" data-name="Grupo 10356">
          <path id="Trazado_9678" data-name="Trazado 9678" d="M782.473,8278.306l13.929-53.162,38.141,38.32ZM797,8227.345l-12.924,49.328,48.313-13.771Z" fill="#2b2b2b"/>
        </g>
        <g id="Grupo_10357" data-name="Grupo 10357">
          <path id="Trazado_9679" data-name="Trazado 9679" d="M800.693,8227.141a4.093,4.093,0,1,1-3.1-4.889A4.093,4.093,0,0,1,800.693,8227.141Z" fill="#fef121"/>
          <path id="Trazado_9680" data-name="Trazado 9680" d="M796.7,8230.9a4.66,4.66,0,1,1,4.545-3.64h0A4.666,4.666,0,0,1,796.7,8230.9Zm0-8.187a3.526,3.526,0,1,0,3.441,4.3h0a3.529,3.529,0,0,0-2.669-4.212A3.486,3.486,0,0,0,796.7,8222.718Z" fill="#2b2b2b"/>
        </g>
        <g id="Grupo_10358" data-name="Grupo 10358">
          <path id="Trazado_9681" data-name="Trazado 9681" d="M787.266,8278.385a4.093,4.093,0,1,1-3.1-4.889A4.094,4.094,0,0,1,787.266,8278.385Z" fill="#197ac4"/>
          <path id="Trazado_9682" data-name="Trazado 9682" d="M783.273,8282.148a4.659,4.659,0,1,1,4.545-3.64h0A4.666,4.666,0,0,1,783.273,8282.148Zm0-8.186a3.526,3.526,0,1,0,3.441,4.3h0a3.53,3.53,0,0,0-2.669-4.212A3.491,3.491,0,0,0,783.272,8273.963Z" fill="#2b2b2b"/>
        </g>
        <g id="Grupo_10359" data-name="Grupo 10359">
          <path id="Trazado_9683" data-name="Trazado 9683" d="M837.457,8264.079a4.092,4.092,0,1,1-3.1-4.889A4.091,4.091,0,0,1,837.457,8264.079Z" fill="#ff4929"/>
          <path id="Trazado_9684" data-name="Trazado 9684" d="M833.464,8267.842a4.659,4.659,0,1,1,4.545-3.639A4.633,4.633,0,0,1,833.464,8267.842Zm0-8.186a3.526,3.526,0,1,0,3.44,4.3h0a3.523,3.523,0,0,0-2.668-4.212A3.436,3.436,0,0,0,833.464,8259.656Z" fill="#2b2b2b"/>
        </g>
      </g>
      <g id="Grupo_10364" data-name="Grupo 10364">
        <g id="Grupo_10361" data-name="Grupo 10361">
          <rect id="Rectngulo_3495" data-name="Rectngulo 3495" width="60.741" height="1.132" transform="translate(941.95 8276.979) rotate(-45.28)" fill="#2b2b2b"/>
        </g>
        <g id="Grupo_10362" data-name="Grupo 10362">
          <path id="Trazado_9685" data-name="Trazado 9685" d="M986.145,8238.179a4.092,4.092,0,1,1,2.908-5A4.092,4.092,0,0,1,986.145,8238.179Z" fill="#f6ac43"/>
          <path id="Trazado_9686" data-name="Trazado 9686" d="M985.1,8238.883a4.662,4.662,0,1,1,1.191-.156h0A4.647,4.647,0,0,1,985.1,8238.883Zm0-8.187a3.555,3.555,0,0,0-.9.118,3.526,3.526,0,1,0,4.312,2.506A3.534,3.534,0,0,0,985.1,8230.7Z" fill="#2b2b2b"/>
        </g>
        <g id="Grupo_10363" data-name="Grupo 10363">
          <path id="Trazado_9687" data-name="Trazado 9687" d="M943.394,8281.329a4.093,4.093,0,1,1,2.909-5A4.092,4.092,0,0,1,943.394,8281.329Z" fill="#197ac4"/>
          <path id="Trazado_9688" data-name="Trazado 9688" d="M942.348,8282.032a4.666,4.666,0,1,1,1.191-.156A4.667,4.667,0,0,1,942.348,8282.032Zm0-8.187a3.528,3.528,0,1,0,3.41,2.625A3.506,3.506,0,0,0,942.345,8273.845Z" fill="#2b2b2b"/>
        </g>
      </g>
      <g id="Grupo_10369" data-name="Grupo 10369">
        <g id="Grupo_10365" data-name="Grupo 10365">
          <path id="Trazado_9689" data-name="Trazado 9689" d="M1051.71,8285.933l-39.081-37.475,52.929-14.788Zm-36.864-36.917,36.262,34.769,12.848-48.491Z" fill="#2b2b2b"/>
        </g>
        <g id="Grupo_10366" data-name="Grupo 10366">
          <path id="Trazado_9690" data-name="Trazado 9690" d="M1066,8238.381a4.093,4.093,0,1,1,2.659-5.141A4.092,4.092,0,0,1,1066,8238.381Z" fill="#f6ac43"/>
          <path id="Trazado_9691" data-name="Trazado 9691" d="M1064.752,8239.142a4.662,4.662,0,1,1,1.418-.221A4.64,4.64,0,0,1,1064.752,8239.142Zm.008-8.188a3.527,3.527,0,0,0-1.622,6.66,3.486,3.486,0,0,0,2.689.228,3.528,3.528,0,0,0-1.067-6.888Z" fill="#2b2b2b"/>
        </g>
        <g id="Grupo_10367" data-name="Grupo 10367">
          <path id="Trazado_9692" data-name="Trazado 9692" d="M1014.978,8252.637a4.092,4.092,0,1,1,2.659-5.14A4.091,4.091,0,0,1,1014.978,8252.637Z" fill="#34b534"/>
          <path id="Trazado_9693" data-name="Trazado 9693" d="M1013.733,8253.4a4.664,4.664,0,1,1,1.417-.222h0A4.634,4.634,0,0,1,1013.733,8253.4Zm.008-8.189a3.538,3.538,0,1,0,1.616.4A3.531,3.531,0,0,0,1013.741,8245.209Z" fill="#2b2b2b"/>
        </g>
        <g id="Grupo_10368" data-name="Grupo 10368">
          <path id="Trazado_9694" data-name="Trazado 9694" d="M1052.65,8288.758a4.092,4.092,0,1,1,2.659-5.141A4.092,4.092,0,0,1,1052.65,8288.758Z" fill="#7e38b0"/>
          <path id="Trazado_9695" data-name="Trazado 9695" d="M1051.4,8289.519a4.668,4.668,0,1,1,1.418-.221h0A4.66,4.66,0,0,1,1051.4,8289.519Zm.01-8.187a3.526,3.526,0,1,0,1.065,6.887h0a3.527,3.527,0,0,0-1.065-6.887Z" fill="#2b2b2b"/>
        </g>
      </g>
      <g id="Grupo_10388" data-name="Grupo 10388">
        <g id="Grupo_10382" data-name="Grupo 10382">
          <g id="Grupo_10370" data-name="Grupo 10370">
            <path id="Trazado_9696" data-name="Trazado 9696" d="M883.893,8225.236l-.1,0a30.2,30.2,0,0,0-15.1,4.024l15.194,26.318Z" fill="#fef121"/>
          </g>
          <g id="Grupo_10371" data-name="Grupo 10371">
            <path id="Trazado_9697" data-name="Trazado 9697" d="M868.7,8229.259a30.259,30.259,0,0,0-11.155,11.105l26.349,15.213Z" fill="#8ad21b"/>
          </g>
          <g id="Grupo_10372" data-name="Grupo 10372">
            <path id="Trazado_9698" data-name="Trazado 9698" d="M910.094,8240.45a30.237,30.237,0,0,0-11.056-11.106l-15.145,26.233Z" fill="#f6ac43"/>
          </g>
          <g id="Grupo_10373" data-name="Grupo 10373">
            <path id="Trazado_9699" data-name="Trazado 9699" d="M899.038,8229.344a30.2,30.2,0,0,0-15.145-4.107v30.341Z" fill="#face32"/>
          </g>
          <g id="Grupo_10374" data-name="Grupo 10374">
            <path id="Trazado_9700" data-name="Trazado 9700" d="M914.138,8255.577a30.186,30.186,0,0,0-4.044-15.127l-26.2,15.127Z" fill="#fb7833"/>
          </g>
          <g id="Grupo_10375" data-name="Grupo 10375">
            <path id="Trazado_9701" data-name="Trazado 9701" d="M857.544,8240.364a30.194,30.194,0,0,0-4.093,15.213h30.442Z" fill="#34b534"/>
          </g>
          <g id="Grupo_10376" data-name="Grupo 10376">
            <path id="Trazado_9702" data-name="Trazado 9702" d="M857.544,8270.789a30.227,30.227,0,0,0,11.155,11.1l15.194-26.316Z" fill="#197ac4"/>
          </g>
          <g id="Grupo_10377" data-name="Grupo 10377">
            <path id="Trazado_9703" data-name="Trazado 9703" d="M853.451,8255.577a30.19,30.19,0,0,0,4.093,15.212l26.349-15.212Z" fill="#1bb3cf"/>
          </g>
          <g id="Grupo_10378" data-name="Grupo 10378">
            <path id="Trazado_9704" data-name="Trazado 9704" d="M883.893,8255.577l26.2,15.127a30.189,30.189,0,0,0,4.044-15.127Z" fill="#ff4929"/>
          </g>
          <g id="Grupo_10379" data-name="Grupo 10379">
            <path id="Trazado_9705" data-name="Trazado 9705" d="M899.038,8281.809a30.212,30.212,0,0,0,11.056-11.1l-26.2-15.127Z" fill="#d24499"/>
          </g>
          <g id="Grupo_10380" data-name="Grupo 10380">
            <path id="Trazado_9706" data-name="Trazado 9706" d="M868.7,8281.894a30.189,30.189,0,0,0,15.1,4.026l.1,0v-30.34Z" fill="#525eba"/>
          </g>
          <g id="Grupo_10381" data-name="Grupo 10381">
            <path id="Trazado_9707" data-name="Trazado 9707" d="M883.893,8285.917a30.17,30.17,0,0,0,15.145-4.108l-15.145-26.231Z" fill="#7e38b0"/>
          </g>
        </g>
        <g id="Grupo_10383" data-name="Grupo 10383">
          <path id="Trazado_9708" data-name="Trazado 9708" d="M905.877,8277.23H861.91v-43.967h43.967Zm-42.834-1.133h41.7v-41.7h-41.7Z" fill="#2b2b2b"/>
        </g>
        <g id="Grupo_10384" data-name="Grupo 10384">
          <path id="Trazado_9709" data-name="Trazado 9709" d="M906.358,8280.62a4.093,4.093,0,1,1,2.908-5A4.092,4.092,0,0,1,906.358,8280.62Z" fill="#d24499"/>
          <path id="Trazado_9710" data-name="Trazado 9710" d="M905.3,8281.324a4.673,4.673,0,1,1,1.2-.157A4.631,4.631,0,0,1,905.3,8281.324Zm.007-8.187a3.527,3.527,0,1,0,3.409,2.624A3.508,3.508,0,0,0,905.309,8273.137Z" fill="#2b2b2b"/>
        </g>
        <g id="Grupo_10385" data-name="Grupo 10385">
          <path id="Trazado_9711" data-name="Trazado 9711" d="M906.358,8237.786a4.093,4.093,0,1,1,2.908-5A4.093,4.093,0,0,1,906.358,8237.786Z" fill="#f6ac43"/>
          <path id="Trazado_9712" data-name="Trazado 9712" d="M905.3,8238.49a4.673,4.673,0,1,1,1.2-.157A4.631,4.631,0,0,1,905.3,8238.49Zm.007-8.187a3.527,3.527,0,1,0,3.409,2.624A3.508,3.508,0,0,0,905.309,8230.3Z" fill="#2b2b2b"/>
        </g>
        <g id="Grupo_10386" data-name="Grupo 10386">
          <path id="Trazado_9713" data-name="Trazado 9713" d="M863.524,8237.786a4.093,4.093,0,1,1,2.908-5A4.093,4.093,0,0,1,863.524,8237.786Z" fill="#8ad21b"/>
          <path id="Trazado_9714" data-name="Trazado 9714" d="M862.477,8238.489a4.666,4.666,0,1,1,1.192-.156h0A4.655,4.655,0,0,1,862.477,8238.489Zm0-8.187a3.527,3.527,0,1,0,3.409,2.624A3.508,3.508,0,0,0,862.475,8230.3Z" fill="#2b2b2b"/>
        </g>
        <g id="Grupo_10387" data-name="Grupo 10387">
          <path id="Trazado_9715" data-name="Trazado 9715" d="M863.524,8280.62a4.093,4.093,0,1,1,2.908-5A4.092,4.092,0,0,1,863.524,8280.62Z" fill="#197ac4"/>
          <path id="Trazado_9716" data-name="Trazado 9716" d="M862.477,8281.323a4.666,4.666,0,1,1,1.192-.156h0A4.655,4.655,0,0,1,862.477,8281.323Zm0-8.187a3.527,3.527,0,1,0,3.409,2.624A3.508,3.508,0,0,0,862.475,8273.137Z" fill="#2b2b2b"/>
        </g>
      </g>
      <g id="Grupo_10389" data-name="Grupo 10389">
        <path id="Trazado_9717" data-name="Trazado 9717" d="M1194.928,8285.176l-12.452-52.641,28.018-6.628,12.453,52.641Zm-11.089-51.8,11.93,50.438,25.815-6.106-11.93-50.437Z" fill="#2b2b2b"/>
      </g>
      <g id="Grupo_10390" data-name="Grupo 10390">
        <path id="Trazado_9718" data-name="Trazado 9718" d="M1183.481,8236.374a4.092,4.092,0,1,1,2.909-5A4.09,4.09,0,0,1,1183.481,8236.374Z" fill="#8ad21b"/>
        <path id="Trazado_9719" data-name="Trazado 9719" d="M1182.435,8237.078a4.662,4.662,0,1,1,1.191-.156A4.668,4.668,0,0,1,1182.435,8237.078Zm0-8.187a3.567,3.567,0,0,0-.908.119,3.5,3.5,0,1,0,.908-.119Z" fill="#2b2b2b"/>
      </g>
      <g id="Grupo_10391" data-name="Grupo 10391">
        <path id="Trazado_9720" data-name="Trazado 9720" d="M1211.33,8230.325a4.092,4.092,0,1,1,2.909-5A4.094,4.094,0,0,1,1211.33,8230.325Z" fill="#face32"/>
        <path id="Trazado_9721" data-name="Trazado 9721" d="M1210.283,8231.028a4.667,4.667,0,1,1,1.192-.156h0A4.7,4.7,0,0,1,1210.283,8231.028Zm.005-8.187a3.527,3.527,0,0,0-3.414,4.431,3.526,3.526,0,0,0,4.311,2.506h0a3.528,3.528,0,0,0-.9-6.937Z" fill="#2b2b2b"/>
      </g>
      <g id="Grupo_10392" data-name="Grupo 10392">
        <path id="Trazado_9722" data-name="Trazado 9722" d="M1223.646,8281.162a4.092,4.092,0,1,1,2.909-5A4.092,4.092,0,0,1,1223.646,8281.162Z" fill="#d24499"/>
        <path id="Trazado_9723" data-name="Trazado 9723" d="M1222.6,8281.865a4.663,4.663,0,1,1,1.191-.156A4.667,4.667,0,0,1,1222.6,8281.865Zm0-8.187a3.526,3.526,0,1,0,3.411,2.624A3.505,3.505,0,0,0,1222.6,8273.679Z" fill="#2b2b2b"/>
      </g>
      <g id="Grupo_10393" data-name="Grupo 10393">
        <path id="Trazado_9724" data-name="Trazado 9724" d="M1195.878,8289.073a4.092,4.092,0,1,1,2.908-5A4.094,4.094,0,0,1,1195.878,8289.073Z" fill="#525eba"/>
        <path id="Trazado_9725" data-name="Trazado 9725" d="M1194.823,8289.778a4.672,4.672,0,1,1,1.2-.157A4.713,4.713,0,0,1,1194.823,8289.778Zm.013-8.189a3.567,3.567,0,0,0-.908.119,3.5,3.5,0,1,0,.908-.119Z" fill="#2b2b2b"/>
      </g>
    </g>
    <g id="Grupo_10492" data-name="Grupo 10492">
      <g id="Grupo_10396" data-name="Grupo 10396">
        <g id="Grupo_10395" data-name="Grupo 10395">
          <ellipse id="Elipse_159" data-name="Elipse 159" cx="29.703" cy="49.782" rx="29.703" ry="49.782" transform="translate(485.536 8100.274)" fill="#fffb00"/>
        </g>
      </g>
      <g id="Grupo_10398" data-name="Grupo 10398">
        <g id="Grupo_10397" data-name="Grupo 10397">
          <ellipse id="Elipse_160" data-name="Elipse 160" cx="29.703" cy="49.782" rx="29.703" ry="49.782" transform="matrix(0.985, -0.174, 0.174, 0.985, 468.698, 8106.945)" fill="#ffed00"/>
        </g>
      </g>
      <g id="Grupo_10400" data-name="Grupo 10400">
        <g id="Grupo_10399" data-name="Grupo 10399">
          <ellipse id="Elipse_161" data-name="Elipse 161" cx="29.703" cy="49.782" rx="29.703" ry="49.782" transform="translate(453.274 8116.438) rotate(-20)" fill="#ffdf00"/>
        </g>
      </g>
      <g id="Grupo_10402" data-name="Grupo 10402">
        <g id="Grupo_10401" data-name="Grupo 10401">
          <ellipse id="Elipse_162" data-name="Elipse 162" cx="29.703" cy="49.782" rx="29.703" ry="49.782" transform="translate(439.733 8128.465) rotate(-30)" fill="#ffd000"/>
        </g>
      </g>
      <g id="Grupo_10404" data-name="Grupo 10404">
        <g id="Grupo_10403" data-name="Grupo 10403">
          <ellipse id="Elipse_163" data-name="Elipse 163" cx="29.703" cy="49.782" rx="29.703" ry="49.782" transform="translate(428.486 8142.66) rotate(-40)" fill="#ffc000"/>
        </g>
      </g>
      <g id="Grupo_10406" data-name="Grupo 10406">
        <g id="Grupo_10405" data-name="Grupo 10405">
          <ellipse id="Elipse_164" data-name="Elipse 164" cx="29.703" cy="49.782" rx="29.703" ry="49.782" transform="translate(419.876 8158.593) rotate(-50)" fill="#ffb200"/>
        </g>
      </g>
      <g id="Grupo_10408" data-name="Grupo 10408">
        <g id="Grupo_10407" data-name="Grupo 10407">
          <ellipse id="Elipse_165" data-name="Elipse 165" cx="29.703" cy="49.782" rx="29.703" ry="49.782" transform="translate(414.162 8175.779) rotate(-60)" fill="#ffa000"/>
        </g>
      </g>
      <g id="Grupo_10410" data-name="Grupo 10410">
        <g id="Grupo_10409" data-name="Grupo 10409">
          <ellipse id="Elipse_166" data-name="Elipse 166" cx="29.703" cy="49.782" rx="29.703" ry="49.782" transform="translate(411.52 8193.696) rotate(-70)" fill="#ff9300"/>
        </g>
      </g>
      <g id="Grupo_10412" data-name="Grupo 10412">
        <g id="Grupo_10411" data-name="Grupo 10411">
          <ellipse id="Elipse_167" data-name="Elipse 167" cx="29.703" cy="49.782" rx="29.703" ry="49.782" transform="translate(412.029 8211.801) rotate(-80)" fill="#ff8700"/>
        </g>
      </g>
      <g id="Grupo_10414" data-name="Grupo 10414">
        <g id="Grupo_10413" data-name="Grupo 10413">
          <ellipse id="Elipse_168" data-name="Elipse 168" cx="49.782" cy="29.703" rx="49.782" ry="29.703" transform="translate(415.674 8170.136)" fill="#ff7900"/>
        </g>
      </g>
      <g id="Grupo_10416" data-name="Grupo 10416">
        <g id="Grupo_10415" data-name="Grupo 10415">
          <ellipse id="Elipse_169" data-name="Elipse 169" cx="49.782" cy="29.703" rx="49.782" ry="29.703" transform="translate(412.029 8187.876) rotate(-10)" fill="#ff5700"/>
        </g>
      </g>
      <g id="Grupo_10418" data-name="Grupo 10418">
        <g id="Grupo_10417" data-name="Grupo 10417">
          <ellipse id="Elipse_170" data-name="Elipse 170" cx="49.782" cy="29.703" rx="49.782" ry="29.703" transform="translate(411.52 8205.979) rotate(-20)" fill="#ff3b00"/>
        </g>
      </g>
      <g id="Grupo_10420" data-name="Grupo 10420">
        <g id="Grupo_10419" data-name="Grupo 10419">
          <ellipse id="Elipse_171" data-name="Elipse 171" cx="49.782" cy="29.703" rx="49.782" ry="29.703" transform="matrix(0.866, -0.5, 0.5, 0.866, 414.162, 8223.896)" fill="#ff2600"/>
        </g>
      </g>
      <g id="Grupo_10422" data-name="Grupo 10422">
        <g id="Grupo_10421" data-name="Grupo 10421">
          <ellipse id="Elipse_172" data-name="Elipse 172" cx="49.782" cy="29.703" rx="49.782" ry="29.703" transform="matrix(0.766, -0.643, 0.643, 0.766, 419.876, 8241.083)" fill="#f22540"/>
        </g>
      </g>
      <g id="Grupo_10424" data-name="Grupo 10424">
        <g id="Grupo_10423" data-name="Grupo 10423">
          <ellipse id="Elipse_173" data-name="Elipse 173" cx="49.782" cy="29.703" rx="49.782" ry="29.703" transform="translate(428.486 8257.016) rotate(-50)" fill="#e5276f"/>
        </g>
      </g>
      <g id="Grupo_10426" data-name="Grupo 10426">
        <g id="Grupo_10425" data-name="Grupo 10425">
          <ellipse id="Elipse_174" data-name="Elipse 174" cx="49.782" cy="29.703" rx="49.782" ry="29.703" transform="matrix(0.5, -0.866, 0.866, 0.5, 439.733, 8271.212)" fill="#d2278d"/>
        </g>
      </g>
      <g id="Grupo_10428" data-name="Grupo 10428">
        <g id="Grupo_10427" data-name="Grupo 10427">
          <ellipse id="Elipse_175" data-name="Elipse 175" cx="49.782" cy="29.703" rx="49.782" ry="29.703" transform="translate(453.274 8283.238) rotate(-70)" fill="#c82db3"/>
        </g>
      </g>
      <g id="Grupo_10430" data-name="Grupo 10430">
        <g id="Grupo_10429" data-name="Grupo 10429">
          <ellipse id="Elipse_176" data-name="Elipse 176" cx="49.782" cy="29.703" rx="49.782" ry="29.703" transform="matrix(0.174, -0.985, 0.985, 0.174, 468.698, 8292.731)" fill="#a92bbc"/>
        </g>
      </g>
      <g id="Grupo_10432" data-name="Grupo 10432">
        <g id="Grupo_10431" data-name="Grupo 10431">
          <ellipse id="Elipse_177" data-name="Elipse 177" cx="29.702" cy="49.782" rx="29.702" ry="49.782" transform="translate(485.536 8199.838)" fill="#7524af"/>
        </g>
      </g>
      <g id="Grupo_10434" data-name="Grupo 10434">
        <g id="Grupo_10433" data-name="Grupo 10433">
          <ellipse id="Elipse_178" data-name="Elipse 178" cx="29.703" cy="49.782" rx="29.703" ry="49.782" transform="translate(485.987 8204.996) rotate(-10)" fill="#4d22b3"/>
        </g>
      </g>
      <g id="Grupo_10436" data-name="Grupo 10436">
        <g id="Grupo_10435" data-name="Grupo 10435">
          <ellipse id="Elipse_179" data-name="Elipse 179" cx="29.703" cy="49.782" rx="29.703" ry="49.782" transform="translate(487.327 8209.997) rotate(-20)" fill="#1b1ca1"/>
        </g>
      </g>
      <g id="Grupo_10438" data-name="Grupo 10438">
        <g id="Grupo_10437" data-name="Grupo 10437">
          <ellipse id="Elipse_180" data-name="Elipse 180" cx="29.703" cy="49.782" rx="29.703" ry="49.782" transform="matrix(0.866, -0.5, 0.5, 0.866, 489.515, 8214.689)" fill="#0229ba"/>
        </g>
      </g>
      <g id="Grupo_10440" data-name="Grupo 10440">
        <g id="Grupo_10439" data-name="Grupo 10439">
          <ellipse id="Elipse_181" data-name="Elipse 181" cx="29.703" cy="49.782" rx="29.703" ry="49.782" transform="matrix(0.766, -0.643, 0.643, 0.766, 492.485, 8218.931)" fill="#0040ba"/>
        </g>
      </g>
      <g id="Grupo_10442" data-name="Grupo 10442">
        <g id="Grupo_10441" data-name="Grupo 10441">
          <ellipse id="Elipse_182" data-name="Elipse 182" cx="29.703" cy="49.782" rx="29.703" ry="49.782" transform="translate(496.146 8222.592) rotate(-50)" fill="#005dbc"/>
        </g>
      </g>
      <g id="Grupo_10444" data-name="Grupo 10444">
        <g id="Grupo_10443" data-name="Grupo 10443">
          <ellipse id="Elipse_183" data-name="Elipse 183" cx="29.702" cy="49.782" rx="29.702" ry="49.782" transform="matrix(0.5, -0.866, 0.866, 0.5, 500.387, 8225.562)" fill="#0074bf"/>
        </g>
      </g>
      <g id="Grupo_10446" data-name="Grupo 10446">
        <g id="Grupo_10445" data-name="Grupo 10445">
          <ellipse id="Elipse_184" data-name="Elipse 184" cx="29.703" cy="49.782" rx="29.703" ry="49.782" transform="translate(505.079 8227.749) rotate(-70)" fill="#0087c3"/>
        </g>
      </g>
      <g id="Grupo_10448" data-name="Grupo 10448">
        <g id="Grupo_10447" data-name="Grupo 10447">
          <ellipse id="Elipse_185" data-name="Elipse 185" cx="29.702" cy="49.782" rx="29.702" ry="49.782" transform="matrix(0.174, -0.985, 0.985, 0.174, 510.081, 8229.089)" fill="#009bcc"/>
        </g>
      </g>
      <g id="Grupo_10450" data-name="Grupo 10450">
        <g id="Grupo_10449" data-name="Grupo 10449">
          <ellipse id="Elipse_186" data-name="Elipse 186" cx="49.782" cy="29.703" rx="49.782" ry="29.703" transform="translate(515.238 8170.136)" fill="#00afcf"/>
        </g>
      </g>
      <g id="Grupo_10452" data-name="Grupo 10452">
        <g id="Grupo_10451" data-name="Grupo 10451">
          <ellipse id="Elipse_187" data-name="Elipse 187" cx="49.782" cy="29.703" rx="49.782" ry="29.703" transform="matrix(0.985, -0.174, 0.174, 0.985, 510.081, 8170.587)" fill="#00c6a0"/>
        </g>
      </g>
      <g id="Grupo_10454" data-name="Grupo 10454">
        <g id="Grupo_10453" data-name="Grupo 10453">
          <ellipse id="Elipse_188" data-name="Elipse 188" cx="49.782" cy="29.703" rx="49.782" ry="29.703" transform="matrix(0.94, -0.342, 0.342, 0.94, 505.079, 8171.927)" fill="#00bd4f"/>
        </g>
      </g>
      <g id="Grupo_10456" data-name="Grupo 10456">
        <g id="Grupo_10455" data-name="Grupo 10455">
          <ellipse id="Elipse_189" data-name="Elipse 189" cx="49.782" cy="29.703" rx="49.782" ry="29.703" transform="translate(500.387 8174.115) rotate(-30)" fill="#00b600"/>
        </g>
      </g>
      <g id="Grupo_10458" data-name="Grupo 10458">
        <g id="Grupo_10457" data-name="Grupo 10457">
          <ellipse id="Elipse_190" data-name="Elipse 190" cx="49.782" cy="29.703" rx="49.782" ry="29.703" transform="translate(496.146 8177.084) rotate(-40)" fill="#3bbe00"/>
        </g>
      </g>
      <g id="Grupo_10460" data-name="Grupo 10460">
        <g id="Grupo_10459" data-name="Grupo 10459">
          <ellipse id="Elipse_191" data-name="Elipse 191" cx="49.782" cy="29.703" rx="49.782" ry="29.703" transform="translate(492.485 8180.746) rotate(-50)" fill="#70c700"/>
        </g>
      </g>
      <g id="Grupo_10462" data-name="Grupo 10462">
        <g id="Grupo_10461" data-name="Grupo 10461">
          <ellipse id="Elipse_192" data-name="Elipse 192" cx="49.782" cy="29.703" rx="49.782" ry="29.703" transform="translate(489.515 8184.987) rotate(-60)" fill="#9cce00"/>
        </g>
      </g>
      <g id="Grupo_10464" data-name="Grupo 10464">
        <g id="Grupo_10463" data-name="Grupo 10463">
          <ellipse id="Elipse_193" data-name="Elipse 193" cx="49.782" cy="29.703" rx="49.782" ry="29.703" transform="translate(487.327 8189.679) rotate(-70)" fill="#badf00"/>
        </g>
      </g>
      <g id="Grupo_10466" data-name="Grupo 10466">
        <g id="Grupo_10465" data-name="Grupo 10465">
          <path id="Trazado_9726" data-name="Trazado 9726" d="M532.527,8101.787a56.569,56.569,0,0,0-17.289,98.051,56.568,56.568,0,0,0,17.289-98.051Z" fill="#dced00"/>
        </g>
      </g>
      <g id="Grupo_10491" data-name="Grupo 10491">
        <g id="Grupo_10490" data-name="Grupo 10490" clip-path="url(#clip-path)">
          <g id="Grupo_10489" data-name="Grupo 10489">
            <g id="Grupo_10468" data-name="Grupo 10468">
              <g id="Grupo_10467" data-name="Grupo 10467">
                <ellipse id="Elipse_194" data-name="Elipse 194" cx="29.703" cy="49.782" rx="29.703" ry="49.782" transform="translate(485.536 8100.274)" fill="#fffb00"/>
              </g>
            </g>
            <g id="Grupo_10470" data-name="Grupo 10470">
              <g id="Grupo_10469" data-name="Grupo 10469">
                <ellipse id="Elipse_195" data-name="Elipse 195" cx="29.703" cy="49.782" rx="29.703" ry="49.782" transform="matrix(0.985, -0.174, 0.174, 0.985, 468.698, 8106.945)" fill="#ffed00"/>
              </g>
            </g>
            <g id="Grupo_10472" data-name="Grupo 10472">
              <g id="Grupo_10471" data-name="Grupo 10471">
                <ellipse id="Elipse_196" data-name="Elipse 196" cx="29.703" cy="49.782" rx="29.703" ry="49.782" transform="translate(453.274 8116.438) rotate(-20)" fill="#ffdf00"/>
              </g>
            </g>
            <g id="Grupo_10474" data-name="Grupo 10474">
              <g id="Grupo_10473" data-name="Grupo 10473">
                <ellipse id="Elipse_197" data-name="Elipse 197" cx="29.703" cy="49.782" rx="29.703" ry="49.782" transform="translate(439.733 8128.465) rotate(-30)" fill="#ffd000"/>
              </g>
            </g>
            <g id="Grupo_10476" data-name="Grupo 10476">
              <g id="Grupo_10475" data-name="Grupo 10475">
                <ellipse id="Elipse_198" data-name="Elipse 198" cx="29.703" cy="49.782" rx="29.703" ry="49.782" transform="translate(428.486 8142.66) rotate(-40)" fill="#ffc000"/>
              </g>
            </g>
            <g id="Grupo_10478" data-name="Grupo 10478">
              <g id="Grupo_10477" data-name="Grupo 10477">
                <ellipse id="Elipse_199" data-name="Elipse 199" cx="29.703" cy="49.782" rx="29.703" ry="49.782" transform="translate(419.876 8158.593) rotate(-50)" fill="#ffb200"/>
              </g>
            </g>
            <g id="Grupo_10480" data-name="Grupo 10480">
              <g id="Grupo_10479" data-name="Grupo 10479">
                <ellipse id="Elipse_200" data-name="Elipse 200" cx="29.703" cy="49.782" rx="29.703" ry="49.782" transform="translate(414.162 8175.779) rotate(-60)" fill="#ffa000"/>
              </g>
            </g>
            <g id="Grupo_10482" data-name="Grupo 10482">
              <g id="Grupo_10481" data-name="Grupo 10481">
                <ellipse id="Elipse_201" data-name="Elipse 201" cx="29.703" cy="49.782" rx="29.703" ry="49.782" transform="translate(411.52 8193.696) rotate(-70)" fill="#ff9300"/>
              </g>
            </g>
            <g id="Grupo_10484" data-name="Grupo 10484">
              <g id="Grupo_10483" data-name="Grupo 10483">
                <ellipse id="Elipse_202" data-name="Elipse 202" cx="29.703" cy="49.782" rx="29.703" ry="49.782" transform="translate(412.029 8211.801) rotate(-80)" fill="#ff8700"/>
              </g>
            </g>
            <g id="Grupo_10486" data-name="Grupo 10486">
              <g id="Grupo_10485" data-name="Grupo 10485">
                <ellipse id="Elipse_203" data-name="Elipse 203" cx="49.782" cy="29.703" rx="49.782" ry="29.703" transform="translate(415.674 8170.136)" fill="#ff7900"/>
              </g>
            </g>
            <g id="Grupo_10488" data-name="Grupo 10488">
              <g id="Grupo_10487" data-name="Grupo 10487">
                <ellipse id="Elipse_204" data-name="Elipse 204" cx="49.782" cy="29.703" rx="49.782" ry="29.703" transform="translate(412.029 8187.876) rotate(-10)" fill="#ff5700"/>
              </g>
            </g>
          </g>
        </g>
      </g>
    </g>
    <g id="Grupo_10533" data-name="Grupo 10533">
      <g id="Grupo_10518" data-name="Grupo 10518">
        <g id="Grupo_10517" data-name="Grupo 10517">
          <g id="Grupo_10494" data-name="Grupo 10494">
            <g id="Grupo_10493" data-name="Grupo 10493">
              <path id="Trazado_9728" data-name="Trazado 9728" d="M397.871,8173.011a98.676,98.676,0,0,1,.016,51.341l-.016,0-28.731-7.7a69.1,69.1,0,0,0-.008-35.941Z" fill="#009d7e"/>
            </g>
          </g>
          <g id="Grupo_10496" data-name="Grupo 10496">
            <g id="Grupo_10495" data-name="Grupo 10495">
              <path id="Trazado_9729" data-name="Trazado 9729" d="M397.871,8224.349l.016,0a99.689,99.689,0,0,1-25.673,44.475l-.012-.012-21.035-21.035a69.754,69.754,0,0,0,17.973-31.128Z" fill="#0059a8"/>
            </g>
          </g>
          <g id="Grupo_10498" data-name="Grupo 10498">
            <g id="Grupo_10497" data-name="Grupo 10497">
              <path id="Trazado_9730" data-name="Trazado 9730" d="M397.871,8173.011l-28.739,7.7a69.076,69.076,0,0,0-17.965-31.132l21.035-21.035.012-.008A98.65,98.65,0,0,1,397.871,8173.011Z" fill="#34a83f"/>
            </g>
          </g>
          <g id="Grupo_10500" data-name="Grupo 10500">
            <g id="Grupo_10499" data-name="Grupo 10499">
              <path id="Trazado_9731" data-name="Trazado 9731" d="M372.214,8128.536l-.012.008-21.035,21.035a69.733,69.733,0,0,0-31.128-17.972l7.7-28.732,0-.012A99.577,99.577,0,0,1,372.214,8128.536Z" fill="#b6d124"/>
            </g>
          </g>
          <g id="Grupo_10502" data-name="Grupo 10502">
            <g id="Grupo_10501" data-name="Grupo 10501">
              <path id="Trazado_9732" data-name="Trazado 9732" d="M372.2,8268.815l.012.012a98.772,98.772,0,0,1-44.474,25.657l-7.7-28.74a69.087,69.087,0,0,0,31.128-17.964Z" fill="#3e2e85"/>
            </g>
          </g>
          <g id="Grupo_10504" data-name="Grupo 10504">
            <g id="Grupo_10503" data-name="Grupo 10503">
              <path id="Trazado_9733" data-name="Trazado 9733" d="M327.744,8102.863l0,.012-7.7,28.732a69.08,69.08,0,0,0-35.94.008l-7.7-28.74A98.666,98.666,0,0,1,327.744,8102.863Z" fill="#fff100"/>
            </g>
          </g>
          <g id="Grupo_10506" data-name="Grupo 10506">
            <g id="Grupo_10505" data-name="Grupo 10505">
              <path id="Trazado_9734" data-name="Trazado 9734" d="M320.039,8265.744l7.7,28.74a98.7,98.7,0,0,1-51.346.016l0-.016,7.7-28.732A69.085,69.085,0,0,0,320.039,8265.744Z" fill="#5e2a84"/>
            </g>
          </g>
          <g id="Grupo_10508" data-name="Grupo 10508">
            <g id="Grupo_10507" data-name="Grupo 10507">
              <path id="Trazado_9735" data-name="Trazado 9735" d="M276.4,8102.875l7.7,28.74a69.085,69.085,0,0,0-31.132,17.96l-21.032-21.031-.012-.012A98.7,98.7,0,0,1,276.4,8102.875Z" fill="#f9ab16"/>
            </g>
          </g>
          <g id="Grupo_10510" data-name="Grupo 10510">
            <g id="Grupo_10509" data-name="Grupo 10509">
              <path id="Trazado_9736" data-name="Trazado 9736" d="M284.1,8265.752l-7.7,28.732,0,.016a99.7,99.7,0,0,1-44.471-25.673l.012-.012,21.035-21.035A69.746,69.746,0,0,0,284.1,8265.752Z" fill="#7e2583"/>
            </g>
          </g>
          <g id="Grupo_10512" data-name="Grupo 10512">
            <g id="Grupo_10511" data-name="Grupo 10511">
              <path id="Trazado_9737" data-name="Trazado 9737" d="M252.97,8247.78l-21.035,21.035-.012.012a98.767,98.767,0,0,1-25.661-44.479l28.744-7.7A69.078,69.078,0,0,0,252.97,8247.78Z" fill="#cb1e2c"/>
            </g>
          </g>
          <g id="Grupo_10514" data-name="Grupo 10514">
            <g id="Grupo_10513" data-name="Grupo 10513">
              <path id="Trazado_9738" data-name="Trazado 9738" d="M231.935,8128.544l21.032,21.031a69.727,69.727,0,0,0-17.973,31.132l-28.732-7.7-.015,0a99.628,99.628,0,0,1,25.676-44.475Z" fill="#ed7023"/>
            </g>
          </g>
          <g id="Grupo_10516" data-name="Grupo 10516">
            <g id="Grupo_10515" data-name="Grupo 10515">
              <path id="Trazado_9739" data-name="Trazado 9739" d="M235.006,8216.648l-28.744,7.7a98.731,98.731,0,0,1-.015-51.342l.015,0,28.732,7.7A69.089,69.089,0,0,0,235.006,8216.648Z" fill="#e64927"/>
            </g>
          </g>
        </g>
      </g>
      <g id="Grupo_10526" data-name="Grupo 10526">
        <g id="Grupo_10525" data-name="Grupo 10525">
          <g id="Grupo_10520" data-name="Grupo 10520">
            <g id="Grupo_10519" data-name="Grupo 10519">
              <path id="Trazado_9740" data-name="Trazado 9740" d="M353.762,8228.147l-51.685-88.976,51.685,30.027Z" fill="#34a83f"/>
            </g>
          </g>
          <g id="Grupo_10522" data-name="Grupo 10522">
            <g id="Grupo_10521" data-name="Grupo 10521">
              <path id="Trazado_9741" data-name="Trazado 9741" d="M302.077,8139.171l-51.7,88.976v-58.919Z" fill="#ed7023"/>
            </g>
          </g>
          <g id="Grupo_10524" data-name="Grupo 10524">
            <g id="Grupo_10523" data-name="Grupo 10523">
              <path id="Trazado_9742" data-name="Trazado 9742" d="M250.373,8228.147H353.762l-51.693,30.046Z" fill="#5e2a84"/>
            </g>
          </g>
        </g>
      </g>
      <g id="Grupo_10528" data-name="Grupo 10528">
        <g id="Grupo_10527" data-name="Grupo 10527">
          <path id="Trazado_9743" data-name="Trazado 9743" d="M302.068,8228.147V8198.68l-25.844-15.021-25.852,44.489Z" fill="#cb1e2c"/>
        </g>
      </g>
      <g id="Grupo_10530" data-name="Grupo 10530">
        <g id="Grupo_10529" data-name="Grupo 10529">
          <path id="Trazado_9744" data-name="Trazado 9744" d="M302.068,8228.147V8198.68l25.844-15.021,25.852,44.489Z" fill="#0059a8"/>
        </g>
      </g>
      <g id="Grupo_10532" data-name="Grupo 10532">
        <g id="Grupo_10531" data-name="Grupo 10531">
          <path id="Trazado_9745" data-name="Trazado 9745" d="M302.068,8198.68l25.844-15.021-25.836-44.489-25.852,44.489Z" fill="#fff100"/>
        </g>
      </g>
    </g>
  </g>
</svg>
